<mxfile host="app.diagrams.net" agent="Mozilla/5.0 (Windows NT 10.0; Win64; x64) AppleWebKit/537.36 (KHTML, like Gecko) Chrome/131.0.0.0 Safari/537.36 Edg/131.0.0.0" version="24.8.6">
  <diagram name="第 1 页" id="W7dTiCcVNJtHJlxmNupI">
    <mxGraphModel dx="1426" dy="781" grid="1" gridSize="10" guides="1" tooltips="1" connect="1" arrows="1" fold="1" page="1" pageScale="1" pageWidth="827" pageHeight="1169" math="0" shadow="0">
      <root>
        <mxCell id="0" />
        <mxCell id="1" parent="0" />
        <mxCell id="6HhipukeFyFXpgUTVtib-2" value="" style="shape=image;verticalLabelPosition=bottom;labelBackgroundColor=default;verticalAlign=top;aspect=fixed;imageAspect=0;image=data:image/svg+xml,PHN2ZyB4bWxucz0iaHR0cDovL3d3dy53My5vcmcvMjAwMC9zdmciIGZpbGw9Im5vbmUiIHZpZXdCb3g9IjAgMCAxMjkxIDI2NSIgaGVpZ2h0PSIyNjUiIHdpZHRoPSIxMjkxIj4mI3hhOzxnIGNsaXAtcGF0aD0idXJsKCNjbGlwMF80MzBfMzkzMikiPiYjeGE7PHBhdGggZmlsbD0iIzQ0NDQ0NCIgZD0iTTIxOC44MDggMTMzLjQ5NEMyMTguODA4IDEzNi4xNjMgMjE4LjY3NSAxMzguODA5IDIxOC40NDcgMTQxLjQzSDE2OS4xNjlMMTY1LjQwNyAxMzMuNzk1TDEzOC42NDEgMTg3LjI0MkwxMTYuNDg5IDEyMy4zNDZMMTAxLjM5MyAxNzMuMjM0TDgxLjIxMzQgMTQxLjQzSDQ2LjQ1NDNDNDYuMjI2IDEzOC44MDkgNDYuMDkzOCAxMzYuMTYzIDQ2LjA5MzggMTMzLjQ5NEM0Ni4wOTM4IDEzMC44MjUgNDYuMjI2IDEyOC4xNjcgNDYuNDU0MyAxMjUuNTQ2SDg5Ljk3NTNMOTYuMjczMyAxMzUuNDc4TDExNS41MjggNzEuOTQyNEwxNDEuMzA5IDE0Ni40OTJMMTY1LjUyNyA5OC4wOTQ5TDE3OC45ODkgMTI1LjU0NkgyMTguNDExQzIxOC42NTEgMTI4LjE2NyAyMTguODA4IDEzMC44NjEgMjE4LjgwOCAxMzMuNDk0WiIvPiYjeGE7PHBhdGggZmlsbD0idXJsKCNwYWludDBfbGluZWFyXzQzMF8zOTMyKSIgZD0iTTE0Ny4yODIgMjIuMzQyOEMxNDcuMjA1IDI2Ljg5NzIgMTQ1Ljc0NSAzMS4zMjA1IDE0My4wOTYgMzUuMDI1MkMxNDAuNDQ3IDM4LjcyOTkgMTM2LjczNCA0MS41NDA3IDEzMi40NSA0My4wODQ1QzEyMC41OCA0My4wODQ1IDEwOC44MjYgNDUuNDIzNyA5Ny44NTkxIDQ5Ljk2ODVDODYuODkyNSA1NC41MTM0IDc2LjkyODIgNjEuMTc0OSA2OC41MzUxIDY5LjU3MjZDNjAuMTQyMSA3Ny45NzAyIDUzLjQ4NDggODcuOTM5NiA0OC45NDMzIDk4LjkxMTVDNDQuNDAxOCAxMDkuODgzIDQyLjA2NTEgMTIxLjY0MyA0Mi4wNjY3IDEzMy41MThDNDAuNTI5OCAxMjkuMTY2IDM3LjY4MTYgMTI1LjM5NyAzMy45MTQ3IDEyMi43MzJDMzAuMTQ3NyAxMjAuMDY2IDI1LjY0NzMgMTE4LjYzNSAyMS4wMzM0IDExOC42MzVDMTYuNDE5NCAxMTguNjM1IDExLjkxOSAxMjAuMDY2IDguMTUyMDQgMTIyLjczMkM0LjM4NTA4IDEyNS4zOTcgMS41MzY5NiAxMjkuMTY2IDQuOTA5OTFlLTA2IDEzMy41MThDLTAuMDA0NzMxODUgMTE2LjExNSAzLjQxNzg2IDk4Ljg4MTkgMTAuMDcyMyA4Mi44MDI3QzE2LjcyNjcgNjYuNzIzNSAyNi40ODI1IDUyLjExMzUgMzguNzgyNCAzOS44MDczQzUxLjA4MjMgMjcuNTAxMSA2NS42ODUzIDE3LjczOTggODEuNzU3MSAxMS4wODExQzk3LjgyODkgNC40MjI0NSAxMTUuMDU1IDAuOTk2ODQzIDEzMi40NSAxQzEzNi44MyAyLjU3ODg0IDE0MC42MSA1LjQ4MTM2IDE0My4yNjggOS4zMDU0MUMxNDUuOTI1IDEzLjEyOTUgMTQ3LjMyOCAxNy42ODU3IDE0Ny4yODIgMjIuMzQyOFoiLz4mI3hhOzxwYXRoIGZpbGw9InVybCgjcGFpbnQxX2xpbmVhcl80MzBfMzkzMikiIGQ9Ik0yNjQuODc1IDEzMy40OTRDMjYzLjMzOCAxMzcuODQ2IDI2MC40OSAxNDEuNjE1IDI1Ni43MjMgMTQ0LjI4QzI1Mi45NTYgMTQ2Ljk0NSAyNDguNDU2IDE0OC4zNzcgMjQzLjg0MiAxNDguMzc3QzIzOS4yMjggMTQ4LjM3NyAyMzQuNzI4IDE0Ni45NDUgMjMwLjk2MSAxNDQuMjhDMjI3LjE5NCAxNDEuNjE1IDIyNC4zNDUgMTM3Ljg0NiAyMjIuODA5IDEzMy40OTRDMjIyLjgwMiAxMDkuNTIgMjEzLjI4MSA4Ni41Mjk0IDE5Ni4zMzcgNjkuNTc2MUMxNzkuMzkzIDUyLjYyMjcgMTU2LjQxMyA0My4wOTQgMTMyLjQ0OSA0My4wODQ1QzEzNi44IDQxLjU0NjkgMTQwLjU2NiAzOC42OTc1IDE0My4yMzEgMzQuOTI5QzE0NS44OTUgMzEuMTYwNSAxNDcuMzI2IDI2LjY1ODEgMTQ3LjMyNiAyMi4wNDIyQzE0Ny4zMjYgMTcuNDI2MyAxNDUuODk1IDEyLjkyNCAxNDMuMjMxIDkuMTU1NDdDMTQwLjU2NiA1LjM4NjkzIDEzNi44IDIuNTM3NiAxMzIuNDQ5IDFDMTQ5Ljg0MSAxIDE2Ny4wNjIgNC40MjcxNCAxODMuMTI5IDExLjA4NTdDMTk5LjE5NyAxNy43NDQzIDIxMy43OTYgMjcuNTAzOSAyMjYuMDkzIDM5LjgwNzNDMjM4LjM5IDUyLjExMDcgMjQ4LjE0NCA2Ni43MTY4IDI1NC43OTggODIuNzkxNkMyNjEuNDUzIDk4Ljg2NjQgMjY0Ljg3NyAxMTYuMDk1IDI2NC44NzUgMTMzLjQ5NFoiLz4mI3hhOzxwYXRoIGZpbGw9InVybCgjcGFpbnQyX2xpbmVhcl80MzBfMzkzMikiIGQ9Ik0yNjQuODc1IDEzMy40OTRDMjY0Ljg3NiAxNTAuODkyIDI2MS40NTIgMTY4LjEyIDI1NC43OTggMTg0LjE5NEMyNDguMTQzIDIwMC4yNjggMjM4LjM4OSAyMTQuODc0IDIyNi4wOTIgMjI3LjE3NkMyMTMuNzk0IDIzOS40NzkgMTk5LjE5NSAyNDkuMjM3IDE4My4xMjggMjU1Ljg5NEMxNjcuMDYxIDI2Mi41NTIgMTQ5Ljg0IDI2NS45NzcgMTMyLjQ0OSAyNjUuOTc2QzEyOC4wOTggMjY0LjQzOCAxMjQuMzMyIDI2MS41ODkgMTIxLjY2NyAyNTcuODJDMTE5LjAwMyAyNTQuMDUyIDExNy41NzIgMjQ5LjU0OSAxMTcuNTcyIDI0NC45MzNDMTE3LjU3MiAyNDAuMzE4IDExOS4wMDMgMjM1LjgxNSAxMjEuNjY3IDIzMi4wNDdDMTI0LjMzMiAyMjguMjc4IDEyOC4wOTggMjI1LjQyOSAxMzIuNDQ5IDIyMy44OTFDMTQ0LjMxOSAyMjMuODkzIDE1Ni4wNzQgMjIxLjU1NSAxNjcuMDQxIDIxNy4wMTJDMTc4LjAwOCAyMTIuNDY4IDE4Ny45NzMgMjA1LjgwOCAxOTYuMzY3IDE5Ny40MTJDMjA0Ljc2MSAxODkuMDE1IDIxMS40MiAxNzkuMDQ3IDIxNS45NjMgMTY4LjA3NUMyMjAuNTA2IDE1Ny4xMDQgMjIyLjg0NCAxNDUuMzQ1IDIyMi44NDQgMTMzLjQ3QzIyNC4zODEgMTM3LjgyMiAyMjcuMjI5IDE0MS41OSAyMzAuOTk2IDE0NC4yNTZDMjM0Ljc2MyAxNDYuOTIxIDIzOS4yNjQgMTQ4LjM1MyAyNDMuODc4IDE0OC4zNTNDMjQ4LjQ5MSAxNDguMzUzIDI1Mi45OTIgMTQ2LjkyMSAyNTYuNzU5IDE0NC4yNTZDMjYwLjUyNiAxNDEuNTkgMjYzLjM3NCAxMzcuODIyIDI2NC45MTEgMTMzLjQ3TDI2NC44NzUgMTMzLjQ5NFoiLz4mI3hhOzxwYXRoIGZpbGw9InVybCgjcGFpbnQzX2xpbmVhcl80MzBfMzkzMikiIGQ9Ik0xMzIuNDQ5IDI2NS45NzZDOTcuMzI3OSAyNjUuOTc2IDYzLjY0NDggMjUyLjAxOCAzOC44MTAxIDIyNy4xNzNDMTMuOTc1NCAyMDIuMzI4IDAuMDIzNDM3NSAxNjguNjMxIDAuMDIzNDM3NSAxMzMuNDk0QzEuNTYwMzkgMTI5LjE0MiA0LjQwODUxIDEyNS4zNzMgOC4xNzU0NyAxMjIuNzA4QzExLjk0MjQgMTIwLjA0MyAxNi40NDI4IDExOC42MTEgMjEuMDU2OCAxMTguNjExQzI1LjY3MDcgMTE4LjYxMSAzMC4xNzEyIDEyMC4wNDMgMzMuOTM4MSAxMjIuNzA4QzM3LjcwNTEgMTI1LjM3MyA0MC41NTMyIDEyOS4xNDIgNDIuMDkwMSAxMzMuNDk0QzQyLjA5MDEgMTU3LjQ3NSA1MS42MTI2IDE4MC40NzQgNjguNTYyOCAxOTcuNDMyQzc2Ljk1NTcgMjA1LjgyOCA4Ni45MTk1IDIxMi40ODkgOTcuODg1MyAyMTcuMDMzQzEwOC44NTEgMjIxLjU3NyAxMjAuNjA0IDIyMy45MTYgMTMyLjQ3MyAyMjMuOTE2QzEyOC4xMjMgMjI1LjQ1MyAxMjQuMzU2IDIyOC4zMDMgMTIxLjY5MiAyMzIuMDcxQzExOS4wMjggMjM1Ljg0IDExNy41OTcgMjQwLjM0MiAxMTcuNTk3IDI0NC45NThDMTE3LjU5NyAyNDkuNTc0IDExOS4wMjggMjU0LjA3NiAxMjEuNjkyIDI1Ny44NDVDMTI0LjM1NiAyNjEuNjEzIDEyOC4xMjMgMjY0LjQ2MyAxMzIuNDczIDI2NkwxMzIuNDQ5IDI2NS45NzZaIi8+JiN4YTs8cGF0aCBmaWxsPSIjNDQ0NDQ0IiBkPSJNMzMyLjM0OCA4OS42NjQzQzMyMS44ODEgOTAuOTc0NSAzMTIuMjUzIDk2LjA2MzQgMzA1LjI3MiAxMDMuOTc1QzI5OC4yOTIgMTExLjg4NiAyOTQuNDM5IDEyMi4wNzYgMjk0LjQzOSAxMzIuNjI4QzI5NC40MzkgMTQzLjE4MSAyOTguMjkyIDE1My4zNyAzMDUuMjcyIDE2MS4yODFDMzEyLjI1MyAxNjkuMTkzIDMyMS44ODEgMTc0LjI4MiAzMzIuMzQ4IDE3NS41OTJDMzM1LjkwNyAxNzYuMDM5IDMzOS41MDcgMTc2LjAzOSAzNDMuMDY2IDE3NS41OTJDMzUzLjUzMiAxNzQuMjgyIDM2My4xNjEgMTY5LjE5MyAzNzAuMTQxIDE2MS4yODFDMzc3LjEyMiAxNTMuMzcgMzgwLjk3NCAxNDMuMTgxIDM4MC45NzQgMTMyLjYyOEMzODAuOTc0IDEyMi4wNzYgMzc3LjEyMiAxMTEuODg2IDM3MC4xNDEgMTAzLjk3NUMzNjMuMTYxIDk2LjA2MzQgMzUzLjUzMiA5MC45NzQ1IDM0My4wNjYgODkuNjY0M0MzMzkuNTA3IDg5LjIxNzQgMzM1LjkwNyA4OS4yMTc0IDMzMi4zNDggODkuNjY0M1pNMzQyLjM0NCAxMDYuOTA3QzM0OC40MzEgMTA3Ljk2OSAzNTMuOTQ1IDExMS4xNTYgMzU3LjkwNiAxMTUuOUMzNjEuODY2IDEyMC42NDUgMzY0LjAxOCAxMjYuNjQgMzYzLjk3OCAxMzIuODIxQzM2My45MzcgMTM5LjAwMyAzNjEuNzA4IDE0NC45NyAzNTcuNjg2IDE0OS42NjJDMzUzLjY2NCAxNTQuMzU1IDM0OC4xMSAxNTcuNDcgMzQyLjAwOSAxNTguNDUzQzMzOS4xNjEgMTU4LjkzNSAzMzYuMjUyIDE1OC45MzUgMzMzLjQwNCAxNTguNDUzSDMzMy4wNDRDMzI2LjkzIDE1Ny40MjEgMzIxLjM4NCAxNTQuMjQ1IDMxNy4zOTggMTQ5LjQ5NEMzMTMuNDEyIDE0NC43NDMgMzExLjI0NyAxMzguNzI4IDMxMS4yOSAxMzIuNTI2QzMxMS4zMzMgMTI2LjMyNCAzMTMuNTgyIDEyMC4zNCAzMTcuNjM1IDExNS42NDVDMzIxLjY4NyAxMTAuOTUxIDMyNy4yNzcgMTA3Ljg1MyAzMzMuNDA0IDEwNi45MDdDMzM2LjI1MiAxMDYuNDI0IDMzOS4xNjEgMTA2LjQyNCAzNDIuMDA5IDEwNi45MDdIMzQyLjM0NFoiIGNsaXAtcnVsZT0iZXZlbm9kZCIgZmlsbC1ydWxlPSJldmVub2RkIi8+JiN4YTs8cGF0aCBmaWxsPSIjNDQ0NDQ0IiBkPSJNNjMxLjQ2MiAxMDkuNjY1QzYzNS42MjUgMTEwLjYxIDYzOS4zNDMgMTEyLjkzOSA2NDIuMDExIDExNi4yNzNDNjQ0LjY3OCAxMTkuNjA2IDY0Ni4xMzcgMTIzLjc0NiA2NDYuMTQ3IDEyOC4wMTZWMTc1LjA1MkM2NDYuMTQ3IDE3NS4yODQgNjQ2LjI0IDE3NS41MDcgNjQ2LjQwNCAxNzUuNjcxQzY0Ni41NjggMTc1LjgzNiA2NDYuNzkxIDE3NS45MjggNjQ3LjAyMyAxNzUuOTI4SDY2Mi40ODFDNjYyLjcxNCAxNzUuOTI4IDY2Mi45MzYgMTc1LjgzNiA2NjMuMTAxIDE3NS42NzFDNjYzLjI2NSAxNzUuNTA3IDY2My4zNTcgMTc1LjI4NCA2NjMuMzU3IDE3NS4wNTJWMTI4LjAxNkM2NjMuMzM4IDExOS40MjkgNjYwLjI1OSAxMTEuMTMgNjU0LjY3MyAxMDQuNjExQzY0OS4wODYgOTguMDkxOSA2NDEuMzU5IDkzLjc3OTQgNjMyLjg3OSA5Mi40NDg1QzYzMS4wNjIgOTIuMTgzMSA2MjkuMjI4IDkyLjA0NTMgNjI3LjM5MiA5Mi4wMzYxQzYyNS41NjMgOTIuMDQ0MiA2MjMuNzM4IDkyLjE4MiA2MjEuOTMgOTIuNDQ4NUM2MTMuNDQ1IDkzLjc3MzkgNjA1LjcxMiA5OC4wODQgNjAwLjEyIDEwNC42MDRDNTk0LjUyOSAxMTEuMTIzIDU5MS40NDYgMTE5LjQyNSA1OTEuNDI2IDEyOC4wMTZWMTc1LjA1MkM1OTEuNDI2IDE3NS4yODQgNTkxLjUxOCAxNzUuNTA3IDU5MS42ODIgMTc1LjY3MUM1OTEuODQ3IDE3NS44MzYgNTkyLjA2OSAxNzUuOTI4IDU5Mi4zMDIgMTc1LjkyOEg2MDcuNzZDNjA3Ljk5MiAxNzUuOTI4IDYwOC4yMTUgMTc1LjgzNiA2MDguMzc5IDE3NS42NzFDNjA4LjU0MyAxNzUuNTA3IDYwOC42MzYgMTc1LjI4NCA2MDguNjM2IDE3NS4wNTJWMTI4LjAxNkM2MDguNjQ4IDEyMy43NDkgNjEwLjEwNyAxMTkuNjEzIDYxMi43NzUgMTE2LjI4NEM2MTUuNDQyIDExMi45NTUgNjE5LjE2MSAxMTAuNjMgNjIzLjMyMSAxMDkuNjkxQzYyNC42NjUgMTA5LjM4MiA2MjYuMDM5IDEwOS4yMjcgNjI3LjQxNyAxMDkuMjI3QzYyOC43OTQgMTA5LjIzIDYzMC4xNjcgMTA5LjM3NiA2MzEuNTE0IDEwOS42NjVINjMxLjQ2MloiIGNsaXAtcnVsZT0iZXZlbm9kZCIgZmlsbC1ydWxlPSJldmVub2RkIi8+JiN4YTs8cGF0aCBmaWxsPSIjNDQ0NDQ0IiBkPSJNNDMxLjM4MyA4OS42NjQ3QzQyMC45MTEgOTAuOTY2MiA0MTEuMjc2IDk2LjA1MjEgNDA0LjI5MSAxMDMuOTY1QzM5Ny4zMDYgMTExLjg3OCAzOTMuNDU0IDEyMi4wNzIgMzkzLjQ1OSAxMzIuNjI5VjE5Ny45MzhDMzkzLjQ1OSAxOTguMDUgMzkzLjQ4MSAxOTguMTYgMzkzLjUyNCAxOTguMjYzQzM5My41NjYgMTk4LjM2NyAzOTMuNjI5IDE5OC40NiAzOTMuNzA4IDE5OC41MzlDMzkzLjc4NyAxOTguNjE4IDM5My44ODEgMTk4LjY4MSAzOTMuOTg0IDE5OC43MjRDMzk0LjA4NyAxOTguNzY2IDM5NC4xOTggMTk4Ljc4OCAzOTQuMzA5IDE5OC43ODhINDA5Ljc2N0M0MDkuOTk1IDE5OC43ODggNDEwLjIxNCAxOTguNyA0MTAuMzc4IDE5OC41NDFDNDEwLjU0MSAxOTguMzgyIDQxMC42MzYgMTk4LjE2NiA0MTAuNjQzIDE5Ny45MzhWMTMyLjYyOUM0MTAuNjQ0IDEyNi40NDQgNDEyLjgzNyAxMjAuNDYxIDQxNi44MzMgMTE1Ljc0MkM0MjAuODI4IDExMS4wMjMgNDI2LjM2NyAxMDcuODc0IDQzMi40NjUgMTA2Ljg1NUM0MzUuMzEzIDEwNi4zNzMgNDM4LjIyMiAxMDYuMzczIDQ0MS4wNyAxMDYuODU1SDQ0MS40MDVDNDQ3LjQ5MiAxMDcuOTE4IDQ1My4wMDYgMTExLjEwNCA0NTYuOTY2IDExNS44NDlDNDYwLjkyNyAxMjAuNTk0IDQ2My4wNzggMTI2LjU4OSA0NjMuMDM4IDEzMi43N0M0NjIuOTk4IDEzOC45NTIgNDYwLjc2OSAxNDQuOTE5IDQ1Ni43NDcgMTQ5LjYxMUM0NTIuNzI1IDE1NC4zMDQgNDQ3LjE3IDE1Ny40MTkgNDQxLjA3IDE1OC40MDJDNDM4LjIyMiAxNTguODg0IDQzNS4zMTMgMTU4Ljg4NCA0MzIuNDY1IDE1OC40MDJINDMyLjEwNEM0MjguMDY4IDE1Ny42ODUgNDI0LjI2MSAxNTYuMDE1IDQyMSAxNTMuNTMxQzQyMC44NjEgMTUzLjQ0NCA0MjAuNyAxNTMuMzk4IDQyMC41MzYgMTUzLjM5OEM0MjAuMzcyIDE1My4zOTggNDIwLjIxMiAxNTMuNDQ0IDQyMC4wNzMgMTUzLjUzMUM0MTkuOTI0IDE1My41OTcgNDE5Ljc5OCAxNTMuNzA2IDQxOS43MTEgMTUzLjg0M0M0MTkuNjI0IDE1My45ODEgNDE5LjU3OSAxNTQuMTQxIDQxOS41ODMgMTU0LjMwNFYxNzEuOTg0QzQxOS41ODUgMTcyLjE1NiA0MTkuNjM4IDE3Mi4zMjMgNDE5LjczNCAxNzIuNDY1QzQxOS44MyAxNzIuNjA3IDQxOS45NjYgMTcyLjcxOCA0MjAuMTI0IDE3Mi43ODNDNDIzLjczMiAxNzQuMjgzIDQyNy41MjkgMTc1LjI4MSA0MzEuNDA5IDE3NS43NDdDNDM0Ljk2NyAxNzYuMTk0IDQzOC41NjggMTc2LjE5NCA0NDIuMTI2IDE3NS43NDdDNDUyLjU5MyAxNzQuNDM3IDQ2Mi4yMjEgMTY5LjM0OCA0NjkuMjAyIDE2MS40MzdDNDc2LjE4MiAxNTMuNTI1IDQ4MC4wMzUgMTQzLjMzNiA0ODAuMDM1IDEzMi43ODNDNDgwLjAzNSAxMjIuMjMxIDQ3Ni4xODIgMTEyLjA0MSA0NjkuMjAyIDEwNC4xM0M0NjIuMjIxIDk2LjIxODUgNDUyLjU5MyA5MS4xMjk2IDQ0Mi4xMjYgODkuODE5M0M0MzguNTY4IDg5LjM3MjcgNDM0Ljk2NyA4OS4zNzI3IDQzMS40MDkgODkuODE5M0w0MzEuMzgzIDg5LjY2NDdaIiBjbGlwLXJ1bGU9ImV2ZW5vZGQiIGZpbGwtcnVsZT0iZXZlbm9kZCIvPiYjeGE7PHBhdGggZmlsbD0idXJsKCNwYWludDRfbGluZWFyXzQzMF8zOTMyKSIgZD0iTTg5MS4xMzEgMTE0Ljc0MkM4OTEuMjg5IDExNS40MTQgODkxLjYwNiAxMTYuMDM4IDg5Mi4wNTQgMTE2LjU2MkM4OTIuNTAyIDExNy4wODcgODkzLjA2OSAxMTcuNDk3IDg5My43MDggMTE3Ljc1N0w5MzAuNzA0IDEzNC40ODRDOTMzLjIxNSAxMzUuNjE4IDkzNS40ODggMTM3LjIxOSA5MzcuNDAyIDEzOS4yMDFDOTQxLjAwMSAxNDIuNjMgOTQzLjE4OSAxNDcuMjgyIDk0My41MzQgMTUyLjI0MkM5NDMuNjQzIDE1NC40NDggOTQzLjQ1MyAxNTYuNjU5IDk0Mi45NjcgMTU4LjgxNEM5NDIuNTQ5IDE2MC42NjkgOTQxLjg3MiAxNjIuNDU2IDk0MC45NTggMTY0LjEyM0M5MzkuMDcyIDE2Ny42MDEgOTM2LjMwNyAxNzAuNTIxIDkzMi45MzkgMTcyLjU5M0M5MjkuNTcgMTc0LjY2NSA5MjUuNzE2IDE3NS44MTUgOTIxLjc2NCAxNzUuOTI4SDg3OC4zMjdDODc4LjA5NCAxNzUuOTI4IDg3Ny44NzIgMTc1LjgzNSA4NzcuNzA3IDE3NS42NzFDODc3LjU0MyAxNzUuNTA3IDg3Ny40NTEgMTc1LjI4NCA4NzcuNDUxIDE3NS4wNTFWMTU5LjU4N0M4NzcuNDUxIDE1OS4zNTUgODc3LjU0MyAxNTkuMTMyIDg3Ny43MDcgMTU4Ljk2OEM4NzcuODcyIDE1OC44MDMgODc4LjA5NCAxNTguNzExIDg3OC4zMjcgMTU4LjcxMUg5MjEuNzEyQzkyMi43MzUgMTU4Ljc0NiA5MjMuNzM1IDE1OC40MSA5MjQuNTMgMTU3Ljc2NkM5MjUuMzI1IDE1Ny4xMjIgOTI1Ljg2MSAxNTYuMjEzIDkyNi4wNDEgMTU1LjIwNkM5MjYuMTgyIDE1NC41NjkgOTI2LjE4MiAxNTMuOTEgOTI2LjA0MSAxNTMuMjczQzkyNS44ODQgMTUyLjU5OCA5MjUuNTY5IDE1MS45NjkgOTI1LjEyMSAxNTEuNDRDOTI0LjY3MyAxNTAuOTExIDkyNC4xMDUgMTUwLjQ5NyA5MjMuNDY0IDE1MC4yMzJMODg2LjQ2OCAxMzMuNTA1Qzg4My45NjMgMTMyLjM3MSA4ODEuNjkyIDEzMC43OCA4NzkuNzcgMTI4LjgxNEM4NzYuMTc2IDEyNS4zNzMgODczLjk5OCAxMjAuNzEyIDg3My42NjQgMTE1Ljc0N0M4NzMuNTM1IDExMy41NDIgODczLjcxNyAxMTEuMzMgODc0LjIwNSAxMDkuMTc1Qzg3NC42MjUgMTA3LjMxNyA4NzUuMzEgMTA1LjUyOSA4NzYuMjQgMTAzLjg2NkM4NzguMTE3IDEwMC4zODcgODgwLjg3NyA5Ny40NjQ2IDg4NC4yNDIgOTUuMzkyNEM4ODcuNjA3IDkzLjMyMDIgODkxLjQ1OCA5Mi4xNzE0IDg5NS40MDggOTIuMDYxNkg5MzguNjkxQzkzOC45MjMgOTIuMDYxNiA5MzkuMTQ2IDkyLjE1MzkgOTM5LjMxIDkyLjMxODNDOTM5LjQ3NCA5Mi40ODI2IDkzOS41NjYgOTIuNzA1NSA5MzkuNTY2IDkyLjkzNzlWMTA4LjQwMkM5MzkuNTY2IDEwOC41MTcgOTM5LjU0NCAxMDguNjMxIDkzOS41IDEwOC43MzdDOTM5LjQ1NiAxMDguODQzIDkzOS4zOTEgMTA4Ljk0IDkzOS4zMSAxMDkuMDIxQzkzOS4yMjkgMTA5LjEwMyA5MzkuMTMyIDEwOS4xNjcgOTM5LjAyNiAxMDkuMjExQzkzOC45MTkgMTA5LjI1NSA5MzguODA2IDEwOS4yNzggOTM4LjY5MSAxMDkuMjc4SDg5NS40MDhDODk0LjM4OSAxMDkuMjQzIDg5My4zOTIgMTA5LjU3NSA4OTIuNTk3IDExMC4yMTNDODkxLjgwMyAxMTAuODUyIDg5MS4yNjQgMTExLjc1NSA4OTEuMDggMTEyLjc1OEM4OTAuOTM4IDExMy40MDMgODkwLjkzOCAxMTQuMDcxIDg5MS4wOCAxMTQuNzE2TDg5MS4xMzEgMTE0Ljc0MlpNMTE1OC4yNSAxNDkuNDg0TDExMzIuOTIgOTIuNDk5OEMxMTMyLjg1IDkyLjM0NDEgMTEzMi43NCA5Mi4yMTE4IDExMzIuNiA5Mi4xMkMxMTMyLjQ2IDkyLjAyODEgMTEzMi4yOSA5MS45ODA5IDExMzIuMTIgOTEuOTg0M0gxMTE1LjE0QzExMTQuOTkgOTEuOTgxMSAxMTE0Ljg1IDkyLjAxNzUgMTExNC43MiA5Mi4wODk5QzExMTQuNTggOTIuMTYyNCAxMTE0LjQ3IDkyLjI2ODIgMTExNC40IDkyLjM5NjdDMTExNC4zMyA5Mi41MjI5IDExMTQuMjkgOTIuNjY0OCAxMTE0LjI5IDkyLjgwOUMxMTE0LjI5IDkyLjk1MzMgMTExNC4zMyA5My4wOTUyIDExMTQuNCA5My4yMjE0TDExNTEuMTEgMTc1LjQxMkMxMTUxLjE4IDE3NS41NjggMTE1MS4yOSAxNzUuNyAxMTUxLjQzIDE3NS43OTJDMTE1MS41NyAxNzUuODg0IDExNTEuNzQgMTc1LjkzMSAxMTUxLjkxIDE3NS45MjhIMTE2Ni4zNkMxMTY2LjUzIDE3NS45MzEgMTE2Ni43IDE3NS44ODQgMTE2Ni44NCAxNzUuNzkyQzExNjYuOTggMTc1LjcgMTE2Ny4wOSAxNzUuNTY4IDExNjcuMTYgMTc1LjQxMkwxMjA0LjM5IDkzLjI3M0MxMjA0LjQ2IDkzLjE0NjggMTIwNC41IDkzLjAwNDkgMTIwNC41IDkyLjg2MDZDMTIwNC41IDkyLjcxNjMgMTIwNC40NiA5Mi41NzQ0IDEyMDQuMzkgOTIuNDQ4MkMxMjA0LjMxIDkyLjMxNzggMTIwNC4yIDkyLjIxMDUgMTIwNC4wNyA5Mi4xMzc4QzEyMDMuOTQgOTIuMDY1MSAxMjAzLjc5IDkyLjAyOTkgMTIwMy42NCA5Mi4wMzU4SDExODYuNjZDMTE4Ni40OSA5Mi4wMzI0IDExODYuMzMgOTIuMDc5NyAxMTg2LjE5IDkyLjE3MTVDMTE4Ni4wNCA5Mi4yNjMzIDExODUuOTMgOTIuMzk1NiAxMTg1Ljg2IDkyLjU1MTNMMTE2MC4xIDE0OS40ODRDMTE2MC4wMiAxNDkuNjY1IDExNTkuODkgMTQ5LjgxOCAxMTU5LjczIDE0OS45MjNDMTE1OS41NiAxNTAuMDI5IDExNTkuMzcgMTUwLjA4MyAxMTU5LjE3IDE1MC4wNzdDMTE1OC45OCAxNTAuMDc2IDExNTguNzkgMTUwLjAyIDExNTguNjIgMTQ5LjkxNUMxMTU4LjQ2IDE0OS44MSAxMTU4LjMzIDE0OS42NjEgMTE1OC4yNSAxNDkuNDg0Wk0xMDU0Ljg4IDE3NUMxMDU0Ljg4IDE3NS4yMzIgMTA1NC45OCAxNzUuNDU1IDEwNTUuMTQgMTc1LjYxOUMxMDU1LjMgMTc1Ljc4NCAxMDU1LjUzIDE3NS44NzYgMTA1NS43NiAxNzUuODc2SDEwNzEuMjJDMTA3MS40NSAxNzUuODc2IDEwNzEuNjcgMTc1Ljc4NCAxMDcxLjg0IDE3NS42MTlDMTA3MiAxNzUuNDU1IDEwNzIuMDkgMTc1LjIzMiAxMDcyLjA5IDE3NVYxMzUuMDc3QzEwNzIuMSAxMzMuNjM1IDEwNzIuMjIgMTMyLjE5NiAxMDcyLjQ1IDEzMC43NzNDMTA3My40OCAxMjQuNjc1IDEwNzYuNjMgMTE5LjEzNyAxMDgxLjM0IDExNS4xNDFDMTA4Ni4wNiAxMTEuMTQ1IDEwOTIuMDQgMTA4Ljk0OSAxMDk4LjIyIDEwOC45NDNIMTEwMS4wM0MxMTAxLjI1IDEwOC45NDMgMTEwMS40NyAxMDguODUzIDExMDEuNjMgMTA4LjY5NEMxMTAxLjc5IDEwOC41MzQgMTEwMS44OCAxMDguMzE4IDExMDEuODggMTA4LjA5M1Y5Mi43ODMzQzExMDEuODggOTIuNTU1MyAxMTAxLjc5IDkyLjMzNjIgMTEwMS42MyA5Mi4xNzI2QzExMDEuNDcgOTIuMDA5IDExMDEuMjUgOTEuOTEzNyAxMTAxLjAzIDkxLjkwN0gxMDk4LjIyQzEwODcuNjYgOTEuOTAxMiAxMDc3LjQ3IDk1Ljc1NDEgMTA2OS41NSAxMDIuNzQxQzEwNjEuNjQgMTA5LjcyOCAxMDU2LjU1IDExOS4zNjcgMTA1NS4yNCAxMjkuODQ1QzEwNTUuMDMgMTMxLjYyNCAxMDU0LjkyIDEzMy40MTQgMTA1NC45MSAxMzUuMjA2VjE3NS4wNTFMMTA1NC44OCAxNzVaTTcxMy42NDcgODkuNjY0N0M3MTcuMjE0IDg5LjIxODEgNzIwLjgyMyA4OS4yMTgxIDcyNC4zOSA4OS42NjQ3QzczNC44NTcgOTAuOTc0OSA3NDQuNDg1IDk2LjA2MzkgNzUxLjQ2NiAxMDMuOTc1Qzc1OC40NDYgMTExLjg4NyA3NjIuMjk5IDEyMi4wNzYgNzYyLjI5OSAxMzIuNjI5Qzc2Mi4yOTkgMTQzLjE4MSA3NTguNDQ2IDE1My4zNyA3NTEuNDY2IDE2MS4yODJDNzQ0LjQ4NSAxNjkuMTkzIDczNC44NTcgMTc0LjI4MiA3MjQuMzkgMTc1LjU5M0M3MjAuODIzIDE3Ni4wMzkgNzE3LjIxNCAxNzYuMDM5IDcxMy42NDcgMTc1LjU5M0M3MDMuMTggMTc0LjI4MiA2OTMuNTUyIDE2OS4xOTMgNjg2LjU3MSAxNjEuMjgyQzY3OS41OTEgMTUzLjM3IDY3NS43MzggMTQzLjE4MSA2NzUuNzM4IDEzMi42MjlDNjc1LjczOCAxMjIuMDc2IDY3OS41OTEgMTExLjg4NyA2ODYuNTcxIDEwMy45NzVDNjkzLjU1MiA5Ni4wNjM5IDcwMy4xOCA5MC45NzQ5IDcxMy42NDcgODkuNjY0N1pNNzIzLjY2OSAxMDYuOTA3SDcyMy4zMzRDNzIxLjkxMiAxMDYuNjcxIDcyMC40NzMgMTA2LjU1IDcxOS4wMzEgMTA2LjU0NkM3MTcuNTgxIDEwNi41NTEgNzE2LjEzNCAxMDYuNjcyIDcxNC43MDMgMTA2LjkwN0M3MDguNjAyIDEwNy44ODcgNzAzLjA0NiAxMTAuOTk5IDY5OS4wMjEgMTE1LjY5QzY5NC45OTcgMTIwLjM4IDY5Mi43NjUgMTI2LjM0NiA2OTIuNzIxIDEzMi41MjhDNjkyLjY3OCAxMzguNzA5IDY5NC44MjcgMTQ0LjcwNSA2OTguNzg1IDE0OS40NTJDNzAyLjc0NCAxNTQuMTk5IDcwOC4yNTYgMTU3LjM4OCA3MTQuMzQyIDE1OC40NTNINzE0LjcwM0M3MTYuMTM0IDE1OC42ODkgNzE3LjU4MSAxNTguODA5IDcxOS4wMzEgMTU4LjgxNEM3MjAuNDczIDE1OC44MSA3MjEuOTEyIDE1OC42OSA3MjMuMzM0IDE1OC40NTNDNzI5LjQzNCAxNTcuNDcgNzM0Ljk4OSAxNTQuMzU2IDczOS4wMTEgMTQ5LjY2M0M3NDMuMDMzIDE0NC45NyA3NDUuMjYyIDEzOS4wMDMgNzQ1LjMwMiAxMzIuODIyQzc0NS4zNDIgMTI2LjY0MSA3NDMuMTkxIDEyMC42NDUgNzM5LjIzIDExNS45MDFDNzM1LjI3IDExMS4xNTYgNzI5Ljc1NiAxMDcuOTY5IDcyMy42NjkgMTA2LjkwN1pNODEyLjYzIDg5LjY2NDdDODA4Ljc2IDkwLjEzNDQgODA0Ljk3MSA5MS4xMzE2IDgwMS4zNzEgOTIuNjI4NkM4MDEuMjEzIDkyLjY5NDIgODAxLjA3NyA5Mi44MDQ5IDgwMC45ODEgOTIuOTQ2OUM4MDAuODg1IDkzLjA4ODkgODAwLjgzMiA5My4yNTYxIDgwMC44MyA5My40Mjc2VjExMS4xMDhDODAwLjgzMyAxMTEuMjY5IDgwMC44NzkgMTExLjQyNSA4MDAuOTY0IDExMS41NjFDODAxLjA1IDExMS42OTcgODAxLjE3MSAxMTEuODA3IDgwMS4zMTQgMTExLjg3OUM4MDEuNDU4IDExMS45NTEgODAxLjYxOSAxMTEuOTgyIDgwMS43NzkgMTExLjk2OUM4MDEuOTM4IDExMS45NTUgODAyLjA5MiAxMTEuODk4IDgwMi4yMjIgMTExLjgwNEM4MDUuNTg3IDEwOS4yNTIgODA5LjUyMSAxMDcuNTU0IDgxMy42ODYgMTA2Ljg1NUM4MTUuMTA4IDEwNi42MTkgODE2LjU0NyAxMDYuNDk4IDgxNy45ODkgMTA2LjQ5NUM4MTkuNDM5IDEwNi41IDgyMC44ODYgMTA2LjYyIDgyMi4zMTcgMTA2Ljg1NUg4MjIuNjUyQzgyOC43MzkgMTA3LjkxOCA4MzQuMjUzIDExMS4xMDQgODM4LjIxMyAxMTUuODQ5Qzg0Mi4xNzQgMTIwLjU5NCA4NDQuMzI1IDEyNi41ODkgODQ0LjI4NSAxMzIuNzdDODQ0LjI0NSAxMzguOTUyIDg0Mi4wMTYgMTQ0LjkxOSA4MzcuOTk0IDE0OS42MTFDODMzLjk3MiAxNTQuMzA0IDgyOC40MTcgMTU3LjQxOSA4MjIuMzE3IDE1OC40MDJDODIwLjg4NiAxNTguNjM3IDgxOS40MzkgMTU4Ljc1OCA4MTcuOTg5IDE1OC43NjNDODE2LjU0NyAxNTguNzU5IDgxNS4xMDggMTU4LjYzOCA4MTMuNjg2IDE1OC40MDJIODEzLjMyNkM4MDcuMjk0IDE1Ny4zMTEgODAxLjg0IDE1NC4xMyA3OTcuOTIgMTQ5LjQxN0M3OTQgMTQ0LjcwNCA3OTEuODY1IDEzOC43NiA3OTEuODkgMTMyLjYyOVY2Ny4wMTAxQzc5MS44OSA2Ni43Nzc3IDc5MS43OTggNjYuNTU0OCA3OTEuNjM0IDY2LjM5MDVDNzkxLjQ3IDY2LjIyNjEgNzkxLjI0NyA2Ni4xMzM4IDc5MS4wMTQgNjYuMTMzOEg3NzUuNTU2Qzc3NS4zMjQgNjYuMTMzOCA3NzUuMTAxIDY2LjIyNjEgNzc0LjkzNyA2Ni4zOTA1Qzc3NC43NzMgNjYuNTU0OCA3NzQuNjggNjYuNzc3NyA3NzQuNjggNjcuMDEwMVYxMzIuNjI5Qzc3NC42ODEgMTQzLjE4MyA3NzguNTM1IDE1My4zNzUgNzg1LjUxOSAxNjEuMjg2Qzc5Mi41MDMgMTY5LjE5OCA4MDIuMTM1IDE3NC4yODYgODEyLjYwNCAxNzUuNTkzQzgxNi4xNzEgMTc2LjAzOSA4MTkuNzggMTc2LjAzOSA4MjMuMzQ4IDE3NS41OTNDODMzLjgxNCAxNzQuMjgyIDg0My40NDMgMTY5LjE5MyA4NTAuNDIzIDE2MS4yODJDODU3LjQwNCAxNTMuMzcgODYxLjI1NiAxNDMuMTgxIDg2MS4yNTYgMTMyLjYyOUM4NjEuMjU2IDEyMi4wNzYgODU3LjQwNCAxMTEuODg3IDg1MC40MjMgMTAzLjk3NUM4NDMuNDQzIDk2LjA2MzkgODMzLjgxNCA5MC45NzQ5IDgyMy4zNDggODkuNjY0N0M4MTkuNzggODkuMjE4MSA4MTYuMTcxIDg5LjIxODEgODEyLjYwNCA4OS42NjQ3SDgxMi42M1pNMTAxNy42NiAxNTEuMTA4QzEwMTQuODUgMTUzLjkxOSAxMDExLjQ0IDE1Ni4wNTIgMTAwNy42OSAxNTcuMzQ1SDEwMDcuNDVDMTAwMy4zMyAxNTguNzIyIDk5OC45MiAxNTkuMDQ0IDk5NC42MzcgMTU4LjI4NEM5OTAuMzUzIDE1Ny41MjMgOTg2LjMyOCAxNTUuNzAzIDk4Mi45MjYgMTUyLjk4OUM5NzkuNTI3IDE1MC4yNTUgOTc2Ljg2OSAxNDYuNzEgOTc1LjE5NyAxNDIuNjhDOTcyLjYyMiAxMzYuMzM0IDk3Mi42MjIgMTI5LjIzMyA5NzUuMTk3IDEyMi44ODZDOTc2Ljg1OSAxMTguODUxIDk3OS41MTkgMTE1LjMwMyA5ODIuOTI2IDExMi41NzdDOTg2LjA4NiAxMTAuMDQ0IDk4OS43OTEgMTA4LjI3OSA5OTMuNzQ4IDEwNy40MjJDOTk3LjcwNiAxMDYuNTY1IDEwMDEuODEgMTA2LjY0IDEwMDUuNzMgMTA3LjYzOUMxMDA5LjY2IDEwOC42MzkgMTAxMy4yOSAxMTAuNTM2IDEwMTYuMzYgMTEzLjE4MkMxMDE5LjQzIDExNS44MjggMTAyMS44NCAxMTkuMTUgMTAyMy40IDEyMi44ODZDMTAyMy41OCAxMjMuMzI1IDEwMjMuNzQgMTIzLjc2MyAxMDIzLjg5IDEyNC4yMDFIOTgyLjE1M0M5ODAuMjMgMTI5Ljc2MSA5ODAuMjMgMTM1LjgwNiA5ODIuMTUzIDE0MS4zNjZIMTA0MUMxMDQxLjIxIDE0MS4zNjcgMTA0MS40MSAxNDEuMjkyIDEwNDEuNTYgMTQxLjE1NEMxMDQxLjcyIDE0MS4wMTYgMTA0MS44MiAxNDAuODI2IDEwNDEuODUgMTQwLjYxOEwxMDQyLjE2IDEzOC4wNDFDMTA0Mi42IDEzNC40ODEgMTA0Mi42IDEzMC44NzkgMTA0Mi4xNiAxMjcuMzE5QzEwNDAuODcgMTE2LjgyNyAxMDM1Ljc5IDEwNy4xNjkgMTAyNy44OCAxMDAuMTY0QzEwMTkuOTYgOTMuMTU5MyAxMDA5Ljc2IDg5LjI5MjUgOTk5LjE5NiA4OS4yOTI1Qzk4OC42MjkgODkuMjkyNSA5NzguNDI4IDkzLjE1OTMgOTcwLjUxNCAxMDAuMTY0Qzk2Mi42MDEgMTA3LjE2OSA5NTcuNTIyIDExNi44MjcgOTU2LjIzNSAxMjcuMzE5Qzk1NS43ODkgMTMwLjg3OSA5NTUuNzg5IDEzNC40ODEgOTU2LjIzNSAxMzguMDQxQzk1Ny4yNDQgMTQ2LjA4NSA5NjAuNDg5IDE1My42ODUgOTY1LjYgMTU5Ljk3NkM5NzAuNzEyIDE2Ni4yNjcgOTc3LjQ4NSAxNzAuOTk3IDk4NS4xNTEgMTczLjYyOEM5OTIuODE2IDE3Ni4yNTkgMTAwMS4wNyAxNzYuNjg2IDEwMDguOTYgMTc0Ljg2QzEwMTYuODYgMTczLjAzNCAxMDI0LjA4IDE2OS4wMjkgMTAyOS44MiAxNjMuMjk5TDEwMzEuOCAxNjEuMzE0QzEwMzEuOTYgMTYxLjE1IDEwMzIuMDYgMTYwLjkyOCAxMDMyLjA2IDE2MC42OTZDMTAzMi4wNiAxNjAuNDY0IDEwMzEuOTYgMTYwLjI0MSAxMDMxLjggMTYwLjA3N0wxMDIwLjg4IDE0OS4xNzVDMTAyMC44IDE0OS4wOTUgMTAyMC43IDE0OS4wMzEgMTAyMC42IDE0OC45ODhDMTAyMC40OSAxNDguOTQ0IDEwMjAuMzggMTQ4LjkyMiAxMDIwLjI3IDE0OC45MjJDMTAyMC4xNiAxNDguOTIyIDEwMjAuMDUgMTQ4Ljk0NCAxMDE5Ljk0IDE0OC45ODhDMTAxOS44NCAxNDkuMDMxIDEwMTkuNzQgMTQ5LjA5NSAxMDE5LjY2IDE0OS4xNzVMMTAxNy42NiAxNTEuMTZWMTUxLjEwOFpNMTI2NS41NSAxNTEuMTA4QzEyNjIuNzQgMTUzLjkxMyAxMjU5LjMzIDE1Ni4wNDUgMTI1NS41OCAxNTcuMzQ1SDEyNTUuMzVDMTI1Mi42OCAxNTguMjI2IDEyNDkuODkgMTU4LjY3OCAxMjQ3LjA4IDE1OC42ODVDMTI0MS45MSAxNTguNjc2IDEyMzYuODcgMTU3LjEzOSAxMjMyLjU3IDE1NC4yNjlDMTIyOC4yOCAxNTEuMzk4IDEyMjQuOTIgMTQ3LjMyMiAxMjIyLjk0IDE0Mi41NTFDMTIyMC4zNiAxMzYuMjA1IDEyMjAuMzYgMTI5LjEwNCAxMjIyLjk0IDEyMi43NThDMTIyNC42MiAxMTguNzMgMTIyNy4yNyAxMTUuMTg2IDEyMzAuNjcgMTEyLjQ0OEMxMjM1LjMgMTA4LjcyNyAxMjQxLjA3IDEwNi43IDEyNDcuMDEgMTA2LjdDMTI1Mi45NiAxMDYuNyAxMjU4LjcyIDEwOC43MjcgMTI2My4zNiAxMTIuNDQ4QzEyNjYuNzUgMTE1LjE5MyAxMjY5LjQxIDExOC43MzUgMTI3MS4wOSAxMjIuNzU4QzEyNzEuMjcgMTIzLjE5NiAxMjcxLjQzIDEyMy42MzQgMTI3MS41OCAxMjQuMDcySDEyMzAuMDVDMTIyOC4wOSAxMjkuNjI2IDEyMjguMDkgMTM1LjY4MyAxMjMwLjA1IDE0MS4yMzdIMTI4OC44OUMxMjg5LjEgMTQxLjIzOCAxMjg5LjMgMTQxLjE2MyAxMjg5LjQ2IDE0MS4wMjVDMTI4OS42MiAxNDAuODg3IDEyODkuNzIgMTQwLjY5NyAxMjg5Ljc0IDE0MC40ODlMMTI5MC4wNSAxMzcuOTEyQzEyOTAuNSAxMzQuMzUyIDEyOTAuNSAxMzAuNzUgMTI5MC4wNSAxMjcuMTlDMTI4OC43NyAxMTYuNjk5IDEyODMuNjkgMTA3LjA0IDEyNzUuNzcgMTAwLjAzNUMxMjY3Ljg2IDkzLjAzMDQgMTI1Ny42NiA4OS4xNjM2IDEyNDcuMDkgODkuMTYzNkMxMjM2LjUzIDg5LjE2MzYgMTIyNi4zMiA5My4wMzA0IDEyMTguNDEgMTAwLjAzNUMxMjEwLjUgMTA3LjA0IDEyMDUuNDIgMTE2LjY5OSAxMjA0LjEzIDEyNy4xOUMxMjAzLjY4IDEzMC43NSAxMjAzLjY4IDEzNC4zNTIgMTIwNC4xMyAxMzcuOTEyQzEyMDUuMTMgMTQ1Ljk1NiAxMjA4LjM3IDE1My41NTcgMTIxMy40OCAxNTkuODVDMTIxOC41OSAxNjYuMTQyIDEyMjUuMzYgMTcwLjg3NCAxMjMzLjAzIDE3My41MDZDMTI0MC42OSAxNzYuMTM4IDEyNDguOTQgMTc2LjU2NCAxMjU2Ljg0IDE3NC43MzdDMTI2NC43MyAxNzIuOTEgMTI3MS45NiAxNjguOTAyIDEyNzcuNjkgMTYzLjE3TDEyNzkuNjcgMTYxLjE4NUMxMjc5Ljc1IDE2MS4xMDYgMTI3OS44MiAxNjEuMDEgMTI3OS44NyAxNjAuOTA0QzEyNzkuOTEgMTYwLjc5NyAxMjc5Ljk0IDE2MC42ODMgMTI3OS45NCAxNjAuNTY3QzEyNzkuOTQgMTYwLjQ1MSAxMjc5LjkxIDE2MC4zMzYgMTI3OS44NyAxNjAuMjNDMTI3OS44MiAxNjAuMTI0IDEyNzkuNzUgMTYwLjAyOCAxMjc5LjY3IDE1OS45NDhMMTI2OC43NyAxNDkuMDQ2QzEyNjguNjEgMTQ4Ljg4MiAxMjY4LjM5IDE0OC43OTEgMTI2OC4xNSAxNDguNzkxQzEyNjcuOTIgMTQ4Ljc5MSAxMjY3LjcgMTQ4Ljg4MiAxMjY3LjU0IDE0OS4wNDZMMTI2NS41NSAxNTEuMDMxVjE1MS4xMDhaIiBjbGlwLXJ1bGU9ImV2ZW5vZGQiIGZpbGwtcnVsZT0iZXZlbm9kZCIvPiYjeGE7PHBhdGggZmlsbD0iIzQ0NDQ0NCIgZD0iTTU1NC4xOTcgMTUxLjEwOUM1NTEuMzgyIDE1My45MDggNTQ3Ljk3NSAxNTYuMDM5IDU0NC4yMjYgMTU3LjM0Nkg1NDMuOTY5QzUzOS44NDIgMTU4LjcyMiA1MzUuNDM2IDE1OS4wNDUgNTMxLjE1MiAxNTguMjg0QzUyNi44NjkgMTU3LjUyMyA1MjIuODQzIDE1NS43MDMgNTE5LjQ0MiAxNTIuOTlDNTE1Ljk5NiAxNTAuMjcxIDUxMy4yOTIgMTQ2LjcyNSA1MTEuNTg0IDE0Mi42ODFDNTA5LjAwOSAxMzYuMzM0IDUwOS4wMDkgMTI5LjIzMyA1MTEuNTg0IDEyMi44ODdDNTEzLjI1OSAxMTguODU4IDUxNS45MTYgMTE1LjMxNCA1MTkuMzEzIDExMi41NzhDNTIyLjQ3MyAxMTAuMDQ0IDUyNi4xNzcgMTA4LjI4IDUzMC4xMzUgMTA3LjQyM0M1MzQuMDkzIDEwNi41NjYgNTM4LjE5NSAxMDYuNjQgNTQyLjExOSAxMDcuNjRDNTQ2LjA0MyAxMDguNjM5IDU0OS42ODIgMTEwLjUzNyA1NTIuNzQ4IDExMy4xODJDNTU1LjgxNCAxMTUuODI4IDU1OC4yMjQgMTE5LjE1IDU1OS43ODggMTIyLjg4N0M1NTkuOTY4IDEyMy4zMjUgNTYwLjEyMiAxMjMuNzYzIDU2MC4yNzcgMTI0LjIwMUg1MTguNjY5QzUxNi43NDUgMTI5Ljc2MSA1MTYuNzQ1IDEzNS44MDYgNTE4LjY2OSAxNDEuMzY2SDU3Ny41MTNDNTc3LjcyMSAxNDEuMzY4IDU3Ny45MjMgMTQxLjI5MiA1NzguMDggMTQxLjE1NUM1NzguMjM3IDE0MS4wMTcgNTc4LjMzOCAxNDAuODI2IDU3OC4zNjMgMTQwLjYxOUw1NzguNjcyIDEzOC4wNDFDNTc5LjExOSAxMzQuNDgyIDU3OS4xMTkgMTMwLjg4IDU3OC42NzIgMTI3LjMyQzU3Ny4zODYgMTE2LjgyOCA1NzIuMzA3IDEwNy4xNjkgNTY0LjM5MyAxMDAuMTY1QzU1Ni40OCA5My4xNTk4IDU0Ni4yNzggODkuMjkzIDUzNS43MTIgODkuMjkzQzUyNS4xNDUgODkuMjkzIDUxNC45NDMgOTMuMTU5OCA1MDcuMDMgMTAwLjE2NUM0OTkuMTE2IDEwNy4xNjkgNDk0LjAzOCAxMTYuODI4IDQ5Mi43NTEgMTI3LjMyQzQ5Mi4zMDQgMTMwLjg4IDQ5Mi4zMDQgMTM0LjQ4MiA0OTIuNzUxIDEzOC4wNDFDNDkzLjc2IDE0Ni4wODYgNDk3LjAwNCAxNTMuNjg1IDUwMi4xMTYgMTU5Ljk3NkM1MDcuMjI4IDE2Ni4yNjcgNTE0LjAwMSAxNzAuOTk3IDUyMS42NjYgMTczLjYyOUM1MjkuMzMyIDE3Ni4yNiA1MzcuNTgxIDE3Ni42ODcgNTQ1LjQ3NyAxNzQuODYxQzU1My4zNzMgMTczLjAzNSA1NjAuNTk4IDE2OS4wMjkgNTY2LjMzMSAxNjMuMjk5TDU2OC4zMTUgMTYxLjMxNUM1NjguNDc5IDE2MS4xNSA1NjguNTcxIDE2MC45MjggNTY4LjU3MSAxNjAuNjk2QzU2OC41NzEgMTYwLjQ2NCA1NjguNDc5IDE2MC4yNDIgNTY4LjMxNSAxNjAuMDc4TDU1Ny4zOTIgMTQ5LjE3NkM1NTcuMzEyIDE0OS4wOTUgNTU3LjIxOCAxNDkuMDMyIDU1Ny4xMTQgMTQ4Ljk4OEM1NTcuMDEgMTQ4Ljk0NSA1NTYuODk5IDE0OC45MjIgNTU2Ljc4NiAxNDguOTIyQzU1Ni42NzMgMTQ4LjkyMiA1NTYuNTYyIDE0OC45NDUgNTU2LjQ1OCAxNDguOTg4QzU1Ni4zNTQgMTQ5LjAzMiA1NTYuMjYgMTQ5LjA5NSA1NTYuMTgxIDE0OS4xNzZMNTU0LjE5NyAxNTEuMTZWMTUxLjEwOVoiIGNsaXAtcnVsZT0iZXZlbm9kZCIgZmlsbC1ydWxlPSJldmVub2RkIi8+JiN4YTs8cGF0aCBmaWxsPSIjQzRDNEM0IiBkPSJNMjgxLjYyIDg5LjMzMDFIMjc4Ljk2N1YxNzUuOTU0SDI4MS42MlY4OS4zMzAxWiIvPiYjeGE7PC9nPiYjeGE7PGRlZnM+JiN4YTs8bGluZWFyR3JhZGllbnQgZ3JhZGllbnRVbml0cz0idXNlclNwYWNlT25Vc2UiIHkyPSI2Ny4yNDA5IiB4Mj0iMTQ3LjI4MiIgeTE9IjY3LjI0MDkiIHgxPSIwLjAyNDA0MyIgaWQ9InBhaW50MF9saW5lYXJfNDMwXzM5MzIiPiYjeGE7PHN0b3Agc3RvcC1jb2xvcj0iI0QxQzZFMCIvPiYjeGE7PHN0b3Agc3RvcC1jb2xvcj0iIzkyNzRCMiIgb2Zmc2V0PSIwLjM1Ii8+JiN4YTs8c3RvcCBzdG9wLWNvbG9yPSIjNjUyRjhEIiBvZmZzZXQ9IjAuNzEiLz4mI3hhOzxzdG9wIHN0b3AtY29sb3I9IiMyQjExNDMiIG9mZnNldD0iMSIvPiYjeGE7PC9saW5lYXJHcmFkaWVudD4mI3hhOzxsaW5lYXJHcmFkaWVudCBncmFkaWVudFVuaXRzPSJ1c2VyU3BhY2VPblVzZSIgeTI9Ijc0LjY1OTgiIHgyPSIyNjQuODc1IiB5MT0iNzQuNjU5OCIgeDE9IjEzMi40NDkiIGlkPSJwYWludDFfbGluZWFyXzQzMF8zOTMyIj4mI3hhOzxzdG9wIHN0b3AtY29sb3I9IiM4MkMyREYiIG9mZnNldD0iMC4wMSIvPiYjeGE7PHN0b3Agc3RvcC1jb2xvcj0iIzNDQUZEOSIgb2Zmc2V0PSIwLjMiLz4mI3hhOzxzdG9wIHN0b3AtY29sb3I9IiMwMzc5QjgiIG9mZnNldD0iMC41OSIvPiYjeGE7PHN0b3Agc3RvcC1jb2xvcj0iIzAwNkRBQyIgb2Zmc2V0PSIwLjciLz4mI3hhOzxzdG9wIHN0b3AtY29sb3I9IiMwMDZBQTkiIG9mZnNldD0iMC43MyIvPiYjeGE7PHN0b3Agc3RvcC1jb2xvcj0iIzMzNEM4NCIgb2Zmc2V0PSIwLjkxIi8+JiN4YTs8c3RvcCBzdG9wLWNvbG9yPSIjM0E0NDdBIiBvZmZzZXQ9IjEiLz4mI3hhOzwvbGluZWFyR3JhZGllbnQ+JiN4YTs8bGluZWFyR3JhZGllbnQgZ3JhZGllbnRVbml0cz0idXNlclNwYWNlT25Vc2UiIHkyPSIxMTQuMDM1IiB4Mj0iMzA5LjQ0MSIgeTE9IjI0OS4zMDQiIHgxPSIxMjcuNjI5IiBpZD0icGFpbnQyX2xpbmVhcl80MzBfMzkzMiI+JiN4YTs8c3RvcCBzdG9wLWNvbG9yPSIjMEM2MjM3Ii8+JiN4YTs8c3RvcCBzdG9wLWNvbG9yPSIjMzFCQjc3IiBvZmZzZXQ9IjAuNDA2NDQ0Ii8+JiN4YTs8c3RvcCBzdG9wLWNvbG9yPSIjNUJDNzkyIiBvZmZzZXQ9IjAuNzUyMTk2Ii8+JiN4YTs8c3RvcCBzdG9wLWNvbG9yPSIjQjFFOUNEIiBvZmZzZXQ9IjAuOTgiLz4mI3hhOzwvbGluZWFyR3JhZGllbnQ+JiN4YTs8bGluZWFyR3JhZGllbnQgZ3JhZGllbnRVbml0cz0idXNlclNwYWNlT25Vc2UiIHkyPSIxOTIuMzE2IiB4Mj0iMTMyLjQ0OSIgeTE9IjE5Mi4zMTYiIHgxPSIwLjAyMzQzNzUiIGlkPSJwYWludDNfbGluZWFyXzQzMF8zOTMyIj4mI3hhOzxzdG9wIHN0b3AtY29sb3I9IiM5MzFCMUUiLz4mI3hhOzxzdG9wIHN0b3AtY29sb3I9IiNFRDQ3MjUiIG9mZnNldD0iMC4zMiIvPiYjeGE7PHN0b3Agc3RvcC1jb2xvcj0iI0VFNUYyNiIgb2Zmc2V0PSIwLjM4Ii8+JiN4YTs8c3RvcCBzdG9wLWNvbG9yPSIjRjA4RjI3IiBvZmZzZXQ9IjAuNTMiLz4mI3hhOzxzdG9wIHN0b3AtY29sb3I9IiNGNUMzMjEiIG9mZnNldD0iMC43NCIvPiYjeGE7PHN0b3Agc3RvcC1jb2xvcj0iI0Y4RDcxOCIgb2Zmc2V0PSIwLjg4Ii8+JiN4YTs8c3RvcCBzdG9wLWNvbG9yPSIjRjZERjY1IiBvZmZzZXQ9IjEiLz4mI3hhOzwvbGluZWFyR3JhZGllbnQ+JiN4YTs8bGluZWFyR3JhZGllbnQgZ3JhZGllbnRVbml0cz0idXNlclNwYWNlT25Vc2UiIHkyPSIxMjEuMDU2IiB4Mj0iMTQ4MS41IiB5MT0iMTIxLjA1NiIgeDE9IjMzMy4zNTMiIGlkPSJwYWludDRfbGluZWFyXzQzMF8zOTMyIj4mI3hhOzxzdG9wIHN0b3AtY29sb3I9IiNGNkRGNjUiLz4mI3hhOzxzdG9wIHN0b3AtY29sb3I9IiNGOEQ3MTgiIG9mZnNldD0iMC4xMiIvPiYjeGE7PHN0b3Agc3RvcC1jb2xvcj0iI0Y1QzMyMSIgb2Zmc2V0PSIwLjI2Ii8+JiN4YTs8c3RvcCBzdG9wLWNvbG9yPSIjRjA4RjI3IiBvZmZzZXQ9IjAuNDciLz4mI3hhOzxzdG9wIHN0b3AtY29sb3I9IiNFRTVGMjYiIG9mZnNldD0iMC42MiIvPiYjeGE7PHN0b3Agc3RvcC1jb2xvcj0iI0VENDcyNSIgb2Zmc2V0PSIwLjY4Ii8+JiN4YTs8c3RvcCBzdG9wLWNvbG9yPSIjOTMxQjFFIiBvZmZzZXQ9IjEiLz4mI3hhOzwvbGluZWFyR3JhZGllbnQ+JiN4YTs8Y2xpcFBhdGggaWQ9ImNsaXAwXzQzMF8zOTMyIj4mI3hhOzxyZWN0IGZpbGw9IndoaXRlIiBoZWlnaHQ9IjI2NSIgd2lkdGg9IjEyOTAuMzkiLz4mI3hhOzwvY2xpcFBhdGg+JiN4YTs8L2RlZnM+JiN4YTs8L3N2Zz4=;" parent="1" vertex="1">
          <mxGeometry x="70" y="200" width="341.46" height="70" as="geometry" />
        </mxCell>
        <mxCell id="6HhipukeFyFXpgUTVtib-3" value="dtiku-backend" style="shape=image;html=1;verticalAlign=top;verticalLabelPosition=bottom;labelBackgroundColor=#ffffff;imageAspect=0;aspect=fixed;image=https://cdn0.iconfinder.com/data/icons/social-media-2104/24/social_media_social_media_logo_docker-128.png" parent="1" vertex="1">
          <mxGeometry x="450" y="20" width="70" height="70" as="geometry" />
        </mxCell>
        <mxCell id="6HhipukeFyFXpgUTVtib-4" value="dtiku-web" style="shape=image;html=1;verticalAlign=top;verticalLabelPosition=bottom;labelBackgroundColor=#ffffff;imageAspect=0;aspect=fixed;image=https://cdn0.iconfinder.com/data/icons/social-media-2104/24/social_media_social_media_logo_docker-128.png" parent="1" vertex="1">
          <mxGeometry x="580" y="20" width="70" height="70" as="geometry" />
        </mxCell>
        <mxCell id="6HhipukeFyFXpgUTVtib-5" value="" style="shape=image;verticalLabelPosition=bottom;labelBackgroundColor=default;verticalAlign=top;aspect=fixed;imageAspect=0;image=data:image/svg+xml,PHN2ZyB4bWxucz0iaHR0cDovL3d3dy53My5vcmcvMjAwMC9zdmciIHZlcnNpb249IjEuMSIgaGVpZ2h0PSIxMjUyIiB3aWR0aD0iMTI1MiIgdmlld0JveD0iMCAwIDEyNTIgMTI1MiI+JiN4YTsgPGc+JiN4YTsgIDxnIGlkPSIjNzBjNmJlZmYiPiYjeGE7ICAgPHBhdGggZmlsbD0iIzcwYzZiZSIgZD0ibTYzNC4zNywxMzguMzhjMTEuODgsLTEuMzYgMjQuMjUsMS4zIDM0LjE4LDguMDljMTQuOTYsOS42NiAyNS41NSwyNC40MSAzNC40OSwzOS41MWM0MC41OSw2OC4wMyA4MS40NSwxMzUuOTEgMTIyLjAyLDIwMy45NmM1NC4wMiw5MC45OSAxMDguMDYsMTgxLjk3IDE2MS45NCwyNzMuMDZjMzcuMjgsNjMgNzQuNjUsMTI1Ljk2IDExMi4xOCwxODguODJjMjQuNzIsNDEuOTkgNTAuMjEsODMuNTQgNzMuODQsMTI2LjE2YzEwLjE4LDE3Ljg0IDE1Ljc3LDM4LjQ0IDE0LjkzLDU5LjAzYy0wLjU5LDE1LjkyIC0zLjQ4LDMyLjI4IC0xMS44NCw0Ni4wOGMtMTEuNzMsMTkuNDYgLTMxLjM5LDMzLjIgLTUyLjcxLDQwLjM2Yy0xMS4zNyw0LjA5IC0yMy4zLDYuODcgLTM1LjQzLDYuODljLTEzMi4zMiwtMC4wNSAtMjY0LjY0LDAuMDQgLTM5Ni45NSwwLjAzYy0xMS4zOCwtMC4yOSAtMjIuOTUsLTEuNiAtMzMuNjMsLTUuNzJjLTcuODEsLTMuMzMgLTE1LjUsLTcuNDMgLTIxLjYxLC0xMy40MmMtMTAuNDMsLTEwLjMyIC0xNy4xOSwtMjQuOTYgLTE1LjM4LC0zOS44M2MwLjk0LC0xMC4zOSAzLjQ4LC0yMC42NCA3Ljc2LC0zMC4xNmM0LjE1LC05Ljc3IDkuOTksLTE4LjY3IDE1LjA2LC0yNy45N2MyMi4xMywtMzkuNDcgNDUuMzEsLTc4LjM1IDY5LjQyLC0xMTYuNjVjNy43MiwtMTIuMDUgMTQuNDQsLTI1LjA3IDI1LjEyLC0zNC44N2MxMS4zNSwtMTAuMzkgMjUuNiwtMTguNTQgNDEuMjEsLTE5LjZjMTIuNTUsLTAuNTIgMjQuODksMy44MiAzNS4zNSwxMC41NWMxMS44LDYuOTIgMjEuMDksMTguNDQgMjQuMiwzMS44OGM0LjQ5LDE3LjAxIC0wLjM0LDM0Ljg4IC03LjU1LDUwLjQyYy04LjA5LDE3LjY1IC0xOS42MiwzMy42NyAtMjUuODEsNTIuMThjLTEuMTMsNC4yMSAtMi42Niw5LjUyIDAuNDgsMTMuMjNjMy4xOSwzIDcuNjIsNC4xOCAxMS43Nyw1LjIyYzEyLDIuNjcgMjQuMzgsMS45OCAzNi41OSwyLjA2YzQ1LC0wLjAxIDkwLDAgMTM1LDBjOC45MSwtMC4xNSAxNy44MywwLjMgMjYuNzQsLTAuMjJjNi40MywtMC43NCAxMy40NCwtMS43OSAxOC40NCwtNi4yOGMzLjMsLTIuOTIgMy43MSwtNy44NSAyLjQ2LC0xMS44NWMtMi43NCwtOC44NiAtNy40NiwtMTYuOTMgLTEyLjEyLC0yNC44OWMtMTE5Ljk5LC0yMDQuOTEgLTIzOS4zMSwtNDEwLjIyIC0zNjAuNTYsLTYxNC40Yy0zLjk2LC02LjU2IC03LjM2LC0xMy42OCAtMTMuMDMsLTE4Ljk4Yy0yLjgsLTIuNjkgLTYuOTUsLTQuMjIgLTEwLjc3LC0zLjExYy0zLjI1LDEuMTcgLTUuNDUsNC4wMyAtNy42MSw2LjU3Yy01LjM0LDYuODEgLTEwLjEyLDE0LjA2IC0xNC41MSwyMS41MmMtMjAuODksMzMuOTUgLTQwLjg4LDY4LjQ0IC02MS4zNSwxMDIuNjRjLTExNy45LDE5OC40MyAtMjM1LjgyLDM5Ni44NSAtMzUzLjcxLDU5NS4yOWMtNy4zMSwxMy40NiAtMTUuMDksMjYuNjcgLTIzLjU3LDM5LjQzYy03LjQ1LDEwLjk2IC0xNi40OSwyMS4yMyAtMjguMTQsMjcuODNjLTEzLjczLDcuOTQgLTMwLjY5LDExLjA5IC00Ni4wOCw2LjU0Yy0xMS4yMywtMy40NyAtMjIuMDksLTkuMTIgLTMwLjEzLC0xNy44NGMtMTAuMTgsLTEwLjA4IC0xNC42OSwtMjQuODMgLTE0LjE3LC0zOC45NGMwLjUyLC0xNC44NiA1LjQ5LC0yOS4zNCAxMi45OCwtNDIuMWM3MS41OCwtMTIxLjU5IDE0My42MiwtMjQyLjkyIDIxNS45MywtMzY0LjA5YzM3LjIsLTYyLjggNzQuMjMsLTEyNS42OSAxMTEuNjQsLTE4OC4zNmMzNy44NCwtNjMuNSA3NS43NywtMTI2Ljk0IDExMy40NCwtMTkwLjU0YzIxLjAyLC0zNS44MiA0Mi4xOSwtNzEuNTYgNjQuMjgsLTEwNi43NGM2Ljc5LC0xMS4xNSAxNS41OCwtMjEuMTUgMjYuMTYsLTI4Ljg1YzguNjgsLTUuOTIgMTguNDIsLTExIDI5LjA1LC0xMS45NHoiIGlkPSJzdmdfMiIvPiYjeGE7ICA8L2c+JiN4YTsgIDxnIGlkPSIjMWJhMGQ4ZmYiPiYjeGE7ICAgPHBhdGggZmlsbD0iIzFiYTBkOCIgZD0ibTYyOC4zNSw2MDguMzhjMTcuODMsLTIuODcgMzYuNzIsMS4zOSA1MS41LDExLjc4YzExLjIyLDguNjYgMTkuMDEsMjEuNjQgMjEuMjYsMzUuNjVjMS41MywxMC42OCAwLjQ5LDIxLjc1IC0zLjQ0LDMxLjg0Yy0zLjAyLDguNzMgLTcuMzUsMTYuOTQgLTEyLjE3LDI0LjgxYy02OC43NiwxMTUuNTggLTEzNy41LDIzMS4xNyAtMjA2LjI3LDM0Ni43NWMtOC44LDE0LjQ3IC0xNi44MiwyOS40NyAtMjYuOTYsNDMuMDdjLTcuMzcsOS4xMSAtMTYuNTgsMTYuODUgLTI3LjIxLDIxLjg5Yy0yMi40NywxMS45NyAtNTEuNzksNC42NyAtNjguODgsLTEzLjMzYy04LjY2LC04LjY5IC0xMy43NCwtMjAuNjMgLTE0LjQsLTMyLjg0Yy0wLjk4LC0xMi42NCAxLjgxLC0yNS40MiA3LjUzLC0zNi42OWM1LjAzLC0xMC45NiAxMC45OCwtMjEuNDUgMTcuMTksLTMxLjc3YzMwLjIyLC01MC44NCA2MC4xNywtMTAxLjg0IDkwLjMsLTE1Mi43M2M0MS4yNCwtNjkuOTggODMuMTYsLTEzOS41NSAxMjQuNjYsLTIwOS4zN2M0LjQxLC03Ljk0IDkuOTEsLTE1LjI2IDE2LjA5LC0yMS45YzguMzMsLTguNDYgMTguOSwtMTUuMyAzMC44LC0xNy4xNnoiIGlkPSJzdmdfMyIvPiYjeGE7ICA8L2c+JiN4YTsgPC9nPiYjeGE7PC9zdmc+;" parent="1" vertex="1">
          <mxGeometry x="710" y="20" width="90" height="90" as="geometry" />
        </mxCell>
        <mxCell id="6HhipukeFyFXpgUTVtib-6" value="" style="shape=image;verticalLabelPosition=bottom;labelBackgroundColor=default;verticalAlign=top;aspect=fixed;imageAspect=0;image=data:image/svg+xml,PHN2ZyB4bWxucz0iaHR0cDovL3d3dy53My5vcmcvMjAwMC9zdmciIHZpZXdCb3g9IjAgMCA5MC4wMiAyNC4xMiIgaWQ9IkxheWVyXzIiPjxkZWZzPjxzdHlsZT4uY2xzLTF7ZmlsbDojMWMxYzFjO30uY2xzLTJ7ZmlsbDojMGJhNWVjO2ZpbGwtcnVsZTpldmVub2RkO308L3N0eWxlPjwvZGVmcz48ZyBpZD0iTGF5ZXJfMS0yIj48cGF0aCBkPSJNNS45LDUuM2gtLjM4djEuOTFoLjM4di0xLjkxWiIgY2xhc3M9ImNscy0yIi8+PHBhdGggZD0iTTcuNTIsNS4zaC0uMzh2MS45MWguMzh2LTEuOTFaIiBjbGFzcz0iY2xzLTIiLz48cGF0aCBkPSJNOS43NCwxLjY3bC0uMzktLjY1TDIuOSw0LjY1bC4zOSwuNjVMOS43NCwxLjY3WiIgY2xhc3M9ImNscy0yIi8+PHBhdGggZD0iTTkuNywxLjY3bC4zOS0uNjUsNi40NSwzLjY0LS4zOSwuNjVMOS43LDEuNjdaIiBjbGFzcz0iY2xzLTIiLz48cGF0aCBkPSJNMTcuNjgsNS4zMXYtLjc1SDB2Ljc1SDE3LjY4WiIgY2xhc3M9ImNscy0yIi8+PHBhdGggZD0iTTExLjY4LDE1Ljk3VjQuNzloLjc3djExLjczYy0uMjEtLjIzLS40Ny0uNC0uNzctLjU0WiIgY2xhc3M9ImNscy0yIi8+PHBhdGggZD0iTTkuMzYsMTUuNzhWMGguNzdWMTUuODdjLS4yMi0uMS0uNzUtLjA5LS43Ny0uMDlaIiBjbGFzcz0iY2xzLTIiLz48cGF0aCBkPSJNMi4wMywxNy4zNWMtLjk0LS42OC0xLjU3LTEuNzctMS41Ny0zLDAtLjY1LC4xOC0xLjMsLjUxLTEuODZINy41OGMuMzQsLjU2LC41MSwxLjIxLC41MSwxLjg2LDAsLjU3LS4wOCwxLjEtLjMxLDEuNTgtLjUtLjQ3LTEuMjQtLjY3LTEuOTgtLjY3LTEuMzIsMC0yLjQ1LC44LTIuNzUsMi0uMSwwLS4xNy0uMDItLjI3LS4wMi0uMjUsMC0uNSwuMDUtLjc1LC4xMVoiIGNsYXNzPSJjbHMtMiIvPjxwYXRoIGQ9Ik01LjI3LDguMDVIMy4yN3YxLjk2aDJ2LTEuOTZaIiBjbGFzcz0iY2xzLTIiLz48cGF0aCBkPSJNMy4wMiw4LjA1SDEuMDJ2MS45NkgzLjAydi0xLjk2WiIgY2xhc3M9ImNscy0yIi8+PHBhdGggZD0iTTMuMDIsMTAuMjRIMS4wMnYxLjk2SDMuMDJ2LTEuOTZaIiBjbGFzcz0iY2xzLTIiLz48cGF0aCBkPSJNNS4yNywxMC4yNEgzLjI3djEuOTZoMnYtMS45NloiIGNsYXNzPSJjbHMtMiIvPjxwYXRoIGQ9Ik03LjUyLDEwLjI0aC0ydjEuOTZoMnYtMS45NloiIGNsYXNzPSJjbHMtMiIvPjxwYXRoIGQ9Ik03LjUyLDdoLTJ2MS45Nmgydi0xLjk2WiIgY2xhc3M9ImNscy0yIi8+PHBhdGggZD0iTTMuMzgsMTcuNjVjLjI3LTEuMTMsMS4zMi0xLjk4LDIuNTctMS45OCwuOCwwLDEuNTIsLjM1LDIuMDEsLjksLjQyLS4yOSwuOTMtLjQ1LDEuNDktLjQ1LDEuNDUsMCwyLjYzLDEuMTUsMi42MywyLjU3LDAsLjI5LS4wNSwuNTctLjE0LC44NCwuMzIsLjQyLC41MiwuOTYsLjUyLDEuNTMsMCwxLjQyLTEuMTgsMi41Ny0yLjYzLDIuNTctLjY0LDAtMS4yMy0uMjItMS42OC0uNTktLjQ4LC42NS0xLjI2LDEuMDktMi4xNSwxLjA5LTEuMDIsMC0xLjkxLS41Ny0yLjM1LTEuNC0uMTgsLjA0LS4zNiwuMDYtLjU1LC4wNi0xLjQ1LDAtMi42NC0xLjE1LTIuNjQtMi41N3MxLjE4LTIuNTcsMi42NC0yLjU3Yy4wOSwwLC4xOSwwLC4yOCwwWiIgY2xhc3M9ImNscy0yIi8+PHBhdGggZD0iTTE3LjUsMTAuNjFjLjI1LS4zMiwuNTktLjU5LDEuMDMtLjgxLC40My0uMjIsLjkyLS4zMywxLjQ3LS4zMywuNjIsMCwxLjE5LC4xNSwxLjcsLjQ1LC41MiwuMjksLjkzLC43MSwxLjIyLDEuMjUsLjI5LC41NCwuNDQsMS4xNSwuNDQsMS44NXMtLjE1LDEuMzItLjQ0LDEuODhjLS4yOSwuNTUtLjcsLjk3LTEuMjIsMS4yOC0uNTEsLjMtMS4wOCwuNDUtMS43LC40NS0uNTUsMC0xLjAzLS4xLTEuNDYtLjMxLS40Mi0uMjItLjc3LS40OS0xLjA0LS44MXY0LjMxaC0xLjQ4VjkuNTloMS40OHYxLjAyWm00LjM1LDIuNDJjMC0uNDgtLjEtLjg5LS4zMS0xLjIzLS4yLS4zNS0uNDctLjYyLS44MS0uNzktLjMzLS4xOC0uNjgtLjI4LTEuMDctLjI4cy0uNzMsLjA5LTEuMDcsLjI4Yy0uMzMsLjE4LS42LC40NS0uODEsLjgxLS4yLC4zNS0uMywuNzctLjMsMS4yNXMuMSwuOSwuMywxLjI2Yy4yMSwuMzUsLjQ4LC42MiwuODEsLjgxLC4zNCwuMTgsLjY5LC4yOCwxLjA3LC4yOHMuNzQtLjA5LDEuMDctLjI4Yy4zNC0uMTksLjYxLS40NywuODEtLjgzLC4yMS0uMzYsLjMxLS43OCwuMzEtMS4yNloiIGNsYXNzPSJjbHMtMSIvPjxwYXRoIGQ9Ik0yNy45NCwxNi42NWMtLjY4LDAtMS4yOS0uMTUtMS44My0uNDQtLjU1LS4zLS45Ny0uNzItMS4yOS0xLjI2LS4zMS0uNTUtLjQ3LTEuMTgtLjQ3LTEuODlzLjE2LTEuMzMsLjQ4LTEuODhjLjMyLS41NSwuNzYtLjk3LDEuMzEtMS4yNnMxLjE3LS40NCwxLjg2LS40NCwxLjMsLjE1LDEuODYsLjQ0LC45OSwuNzEsMS4zMSwxLjI2Yy4zMiwuNTUsLjQ4LDEuMTcsLjQ4LDEuODhzLS4xNiwxLjMzLS40OSwxLjg4LS43OCwuOTctMS4zNSwxLjI3Yy0uNTYsLjI5LTEuMTksLjQ0LTEuODcsLjQ0Wm0wLTEuMjVjLjM4LDAsLjc0LS4wOSwxLjA3LS4yNiwuMzQtLjE4LC42MS0uNDQsLjgyLS43OSwuMjEtLjM1LC4zMS0uNzgsLjMxLTEuMjhzLS4xLS45My0uMy0xLjI3Yy0uMi0uMzUtLjQ2LS42Mi0uNzktLjc5LS4zMy0uMTgtLjY4LS4yNi0xLjA3LS4yNnMtLjc0LC4wOS0xLjA3LC4yNmMtLjMyLC4xOC0uNTgsLjQ0LS43NywuNzktLjE5LC4zNC0uMjksLjc3LS4yOSwxLjI3LDAsLjc1LC4xOSwxLjMzLC41OCwxLjc0LC40LC40LC45LC42LDEuNDksLjZaIiBjbGFzcz0iY2xzLTEiLz48cGF0aCBkPSJNMzQuNiwxMC42Yy4yMi0uMzUsLjUtLjYzLC44Ni0uODIsLjM2LS4yLC43OS0uMywxLjI5LS4zdjEuNDloLS4zOGMtLjU4LDAtMS4wMiwuMTQtMS4zMywuNDMtLjI5LC4yOS0uNDQsLjc4LS40NCwxLjQ5djMuNjVoLTEuNDh2LTYuOTRoMS40OHYxLjAxWiIgY2xhc3M9ImNscy0xIi8+PHBhdGggZD0iTTM5Ljg0LDEwLjc2djMuODRjMCwuMjYsLjA2LC40NSwuMTgsLjU3LC4xMywuMTEsLjM1LC4xNiwuNjUsLjE2aC45MXYxLjJoLTEuMTdjLS42NywwLTEuMTgtLjE1LTEuNTMtLjQ1LS4zNi0uMy0uNTMtLjc5LS41My0xLjQ3di0zLjg0aC0uODV2LTEuMTdoLjg1di0xLjczaDEuNDl2MS43M2gxLjc0djEuMTdoLTEuNzRaIiBjbGFzcz0iY2xzLTEiLz48cGF0aCBkPSJNNDIuNDUsMTMuMDNjMC0uNywuMTUtMS4zMSwuNDQtMS44NSwuMy0uNTQsLjcxLS45NSwxLjIyLTEuMjUsLjUyLS4zLDEuMDktLjQ1LDEuNzItLjQ1LC41NiwwLDEuMDUsLjExLDEuNDcsLjMzLC40MiwuMjEsLjc2LC40NywxLjAxLC43OXYtMS4wMWgxLjQ5djYuOTRoLTEuNDl2LTEuMDNjLS4yNSwuMzMtLjU5LC42LTEuMDMsLjgyLS40MywuMjItLjkzLC4zMy0xLjQ4LC4zMy0uNjIsMC0xLjE4LS4xNS0xLjY5LS40NS0uNTEtLjMxLS45Mi0uNzQtMS4yMi0xLjI4LS4yOS0uNTUtLjQ0LTEuMTgtLjQ0LTEuODhabTUuODYsLjAzYzAtLjQ4LS4xLS44OS0uMzEtMS4yNS0uMi0uMzUtLjQ2LS42Mi0uNzktLjgxLS4zMy0uMTgtLjY4LS4yOC0xLjA3LS4yOHMtLjc0LC4wOS0xLjA3LC4yOGMtLjMzLC4xOC0uNiwuNDQtLjgxLC43OS0uMiwuMzQtLjMsLjc2LS4zLDEuMjNzLjEsLjksLjMsMS4yNmMuMjEsLjM2LC40OCwuNjQsLjgxLC44MywuMzQsLjE4LC42OSwuMjgsMS4wNywuMjhzLjc0LS4wOSwxLjA3LS4yOGMuMzMtLjE4LC41OS0uNDUsLjc5LS44MSwuMjEtLjM2LC4zMS0uNzgsLjMxLTEuMjZaIiBjbGFzcz0iY2xzLTEiLz48cGF0aCBkPSJNNTIuNTEsOC42N2MtLjI3LDAtLjQ5LS4wOS0uNjgtLjI2LS4xOC0uMTgtLjI3LS4zOS0uMjctLjY2cy4wOS0uNDgsLjI3LS42NmMuMTgtLjE4LC40MS0uMjYsLjY4LS4yNnMuNDgsLjA5LC42NiwuMjZjLjE4LC4xOCwuMjcsLjM5LC4yNywuNjZzLS4wOSwuNDgtLjI3LC42NmMtLjE4LC4xOC0uNCwuMjYtLjY2LC4yNlptLjczLC45MnY2Ljk0aC0xLjQ4di02Ljk0aDEuNDhaIiBjbGFzcz0iY2xzLTEiLz48cGF0aCBkPSJNNTguNzksOS40OGMuNTYsMCwxLjA3LC4xMSwxLjUxLC4zNCwuNDUsLjIzLC44LC41NiwxLjA1LDEuMDEsLjI1LC40NSwuMzgsLjk4LC4zOCwxLjYxdjQuMDloLTEuNDd2LTMuODhjMC0uNjItLjE2LTEuMS0uNDgtMS40Mi0uMzItLjM0LS43Ni0uNS0xLjMxLS41cy0xLC4xNy0xLjMzLC41Yy0uMzIsLjMzLS40OCwuOC0uNDgsMS40MnYzLjg4aC0xLjQ4di02Ljk0aDEuNDh2Ljc5Yy4yNC0uMjksLjU1LS41MSwuOTItLjY3LC4zOC0uMTYsLjc4LS4yNCwxLjIxLS4yNFoiIGNsYXNzPSJjbHMtMSIvPjxwYXRoIGQ9Ik03MC4xOSwxMi44OWMwLC4yNi0uMDIsLjUtLjA1LC43MWgtNS40N2MuMDQsLjU1LC4yNiwxLC42NCwxLjM0cy44NSwuNSwxLjQsLjVjLjgsMCwxLjM2LS4zMiwxLjY5LS45N2gxLjZjLS4yMiwuNjQtLjYxLDEuMTYtMS4xOCwxLjU3LS41NiwuNC0xLjI3LC42LTIuMTEsLjYtLjY4LDAtMS4zLS4xNS0xLjg1LS40NC0uNTQtLjMtLjk2LS43Mi0xLjI3LTEuMjYtLjMtLjU1LS40NS0xLjE4LS40NS0xLjg5cy4xNS0xLjM0LC40NC0xLjg4Yy4zLS41NSwuNzItLjk3LDEuMjYtMS4yNiwuNTUtLjI5LDEuMTctLjQ0LDEuODctLjQ0czEuMjgsLjE0LDEuODEsLjQzYy41MywuMjksLjk0LC42OSwxLjIzLDEuMjEsLjI5LC41MSwuNDQsMS4xLC40NCwxLjc4Wm0tMS41NS0uNDVjMC0uNTMtLjItLjk1LS41OC0xLjI3LS4zOC0uMzItLjg1LS40OC0xLjQyLS40OC0uNTEsMC0uOTUsLjE2LTEuMzEsLjQ4LS4zNiwuMzEtLjU4LC43My0uNjUsMS4yN2gzLjk2WiIgY2xhc3M9ImNscy0xIi8+PHBhdGggZD0iTTczLjEzLDEwLjZjLjIyLS4zNSwuNS0uNjMsLjg2LS44MiwuMzYtLjIsLjc5LS4zLDEuMjktLjN2MS40OWgtLjM4Yy0uNTgsMC0xLjAyLC4xNC0xLjMzLC40My0uMjksLjI5LS40NCwuNzgtLjQ0LDEuNDl2My42NWgtMS40OHYtNi45NGgxLjQ4djEuMDFaIiBjbGFzcz0iY2xzLTEiLz48cGF0aCBkPSJNNzcuMjMsMTYuNjJjLS4yNywwLS40OS0uMDktLjY4LS4yNi0uMTgtLjE4LS4yNy0uMzktLjI3LS42NnMuMDktLjQ4LC4yNy0uNjZjLjE4LS4xOCwuNDEtLjI2LC42OC0uMjZzLjQ4LC4wOSwuNjYsLjI2Yy4xOCwuMTgsLjI3LC4zOSwuMjcsLjY2cy0uMDksLjQ4LS4yNywuNjZjLS4xOCwuMTgtLjQsLjI2LS42NiwuMjZaIiBjbGFzcz0iY2xzLTEiLz48cGF0aCBkPSJNODAuNTIsOC42N2MtLjI3LDAtLjQ5LS4wOS0uNjgtLjI2LS4xOC0uMTgtLjI3LS4zOS0uMjctLjY2cy4wOS0uNDgsLjI3LS42NmMuMTgtLjE4LC40MS0uMjYsLjY4LS4yNnMuNDgsLjA5LC42NiwuMjZjLjE4LC4xOCwuMjcsLjM5LC4yNywuNjZzLS4wOSwuNDgtLjI3LC42NmMtLjE4LC4xOC0uNCwuMjYtLjY2LC4yNlptLjczLC45MnY2Ljk0aC0xLjQ4di02Ljk0aDEuNDhaIiBjbGFzcz0iY2xzLTEiLz48cGF0aCBkPSJNODYuMywxNi42NWMtLjY4LDAtMS4yOS0uMTUtMS44My0uNDQtLjU1LS4zLS45Ny0uNzItMS4yOS0xLjI2LS4zMS0uNTUtLjQ3LTEuMTgtLjQ3LTEuODlzLjE2LTEuMzMsLjQ4LTEuODhjLjMyLS41NSwuNzYtLjk3LDEuMzEtMS4yNiwuNTUtLjI5LDEuMTctLjQ0LDEuODYtLjQ0czEuMywuMTUsMS44NiwuNDRjLjU1LC4yOSwuOTksLjcxLDEuMzEsMS4yNiwuMzIsLjU1LC40OCwxLjE3LC40OCwxLjg4cy0uMTYsMS4zMy0uNDksMS44OC0uNzgsLjk3LTEuMzUsMS4yN2MtLjU2LC4yOS0xLjE5LC40NC0xLjg3LC40NFptMC0xLjI1Yy4zOCwwLC43NC0uMDksMS4wNy0uMjYsLjM0LS4xOCwuNjEtLjQ0LC44Mi0uNzksLjIxLS4zNSwuMzEtLjc4LC4zMS0xLjI4cy0uMS0uOTMtLjMtMS4yN2MtLjItLjM1LS40Ni0uNjItLjc5LS43OS0uMzMtLjE4LS42OC0uMjYtMS4wNy0uMjZzLS43NCwuMDktMS4wNywuMjZjLS4zMiwuMTgtLjU4LC40NC0uNzcsLjc5LS4xOSwuMzQtLjI5LC43Ny0uMjksMS4yNywwLC43NSwuMTksMS4zMywuNTgsMS43NCwuNCwuNCwuOSwuNiwxLjQ5LC42WiIgY2xhc3M9ImNscy0xIi8+PC9nPjwvc3ZnPg==;" parent="1" vertex="1">
          <mxGeometry x="620" y="187.5" width="356.23" height="95" as="geometry" />
        </mxCell>
        <mxCell id="6HhipukeFyFXpgUTVtib-7" value="Artalk" style="shape=image;html=1;verticalAlign=top;verticalLabelPosition=bottom;labelBackgroundColor=#ffffff;imageAspect=0;aspect=fixed;image=https://cdn0.iconfinder.com/data/icons/social-media-2104/24/social_media_social_media_logo_docker-128.png" parent="1" vertex="1">
          <mxGeometry x="317.37" y="20" width="70" height="70" as="geometry" />
        </mxCell>
        <mxCell id="6HhipukeFyFXpgUTVtib-8" value="" style="shape=image;verticalLabelPosition=bottom;labelBackgroundColor=default;verticalAlign=top;aspect=fixed;imageAspect=0;image=data:image/svg+xml,PHN2ZyB4bWxucz0iaHR0cDovL3d3dy53My5vcmcvMjAwMC9zdmciIHhtbDpzcGFjZT0icHJlc2VydmUiIHZpZXdCb3g9IjAgMCA0MzIuMDcxIDQ0NS4zODMiIGhlaWdodD0iNDQ1LjM4M3B0IiB3aWR0aD0iNDMyLjA3MXB0Ij4mI3hhOzxnIHN0eWxlPSJmaWxsLXJ1bGU6bm9uemVybztjbGlwLXJ1bGU6bm9uemVybztzdHJva2U6IzAwMDAwMDtzdHJva2UtbWl0ZXJsaW1pdDo0OyIgaWQ9Im9yZ2luYWwiPiYjeGE7CTwvZz4mI3hhOzxnIHN0eWxlPSJmaWxsLXJ1bGU6bm9uemVybztjbGlwLXJ1bGU6bm9uemVybztmaWxsOm5vbmU7c3Ryb2tlOiNGRkZGRkY7c3Ryb2tlLXdpZHRoOjEyLjQ2NTE7c3Ryb2tlLWxpbmVjYXA6cm91bmQ7c3Ryb2tlLWxpbmVqb2luOnJvdW5kO3N0cm9rZS1taXRlcmxpbWl0OjQ7IiBpZD0iTGF5ZXJfeDAwMjBfMyI+JiN4YTs8cGF0aCBkPSJNMzIzLjIwNSwzMjQuMjI3YzIuODMzLTIzLjYwMSwxLjk4NC0yNy4wNjIsMTkuNTYzLTIzLjIzOWw0LjQ2MywwLjM5MmMxMy41MTcsMC42MTUsMzEuMTk5LTIuMTc0LDQxLjU4Ny03YzIyLjM2Mi0xMC4zNzYsMzUuNjIyLTI3LjcsMTMuNTcyLTIzLjE0OGMtNTAuMjk3LDEwLjM3Ni01My43NTUtNi42NTUtNTMuNzU1LTYuNjU1YzUzLjExMS03OC44MDMsNzUuMzEzLTE3OC44MzYsNTYuMTQ5LTIwMy4zMjIgICAgQzM1Mi41MTQtNS41MzQsMjYyLjAzNiwyNi4wNDksMjYwLjUyMiwyNi44NjlsLTAuNDgyLDAuMDg5Yy05LjkzOC0yLjA2Mi0yMS4wNi0zLjI5NC0zMy41NTQtMy40OTZjLTIyLjc2MS0wLjM3NC00MC4wMzIsNS45NjctNTMuMTMzLDE1LjkwNGMwLDAtMTYxLjQwOC02Ni40OTgtMTUzLjg5OSw4My42MjhjMS41OTcsMzEuOTM2LDQ1Ljc3NywyNDEuNjU1LDk4LjQ3LDE3OC4zMSAgICBjMTkuMjU5LTIzLjE2MywzNy44NzEtNDIuNzQ4LDM3Ljg3MS00Mi43NDhjOS4yNDIsNi4xNCwyMC4zMDcsOS4yNzIsMzEuOTEyLDguMTQ3bDAuODk3LTAuNzY1Yy0wLjI4MSwyLjg3Ni0wLjE1Nyw1LjY4OSwwLjM1OSw5LjAxOWMtMTMuNTcyLDE1LjE2Ny05LjU4NCwxNy44My0zNi43MjMsMjMuNDE2Yy0yNy40NTcsNS42NTktMTEuMzI2LDE1LjczNC0wLjc5NywxOC4zNjdjMTIuNzY4LDMuMTkzLDQyLjMwNSw3LjcxNiw2Mi4yNjgtMjAuMjI0ICAgIGwtMC43OTUsMy4xODhjNS4zMjUsNC4yNiw0Ljk2NSwzMC42MTksNS43Miw0OS40NTJjMC43NTYsMTguODM0LDIuMDE3LDM2LjQwOSw1Ljg1Niw0Ni43NzFjMy44MzksMTAuMzYsOC4zNjksMzcuMDUsNDQuMDM2LDI5LjQwNmMyOS44MDktNi4zODgsNTIuNi0xNS41ODIsNTQuNjc3LTEwMS4xMDciIHN0eWxlPSJmaWxsOiMwMDAwMDA7c3Ryb2tlOiMwMDAwMDA7c3Ryb2tlLXdpZHRoOjM3LjM5NTM7c3Ryb2tlLWxpbmVjYXA6YnV0dDtzdHJva2UtbGluZWpvaW46bWl0ZXI7Ii8+JiN4YTs8cGF0aCBkPSJNNDAyLjM5NSwyNzEuMjNjLTUwLjMwMiwxMC4zNzYtNTMuNzYtNi42NTUtNTMuNzYtNi42NTVjNTMuMTExLTc4LjgwOCw3NS4zMTMtMTc4Ljg0Myw1Ni4xNTMtMjAzLjMyNmMtNTIuMjctNjYuNzg1LTE0Mi43NTItMzUuMi0xNDQuMjYyLTM0LjM4bC0wLjQ4NiwwLjA4N2MtOS45MzgtMi4wNjMtMjEuMDYtMy4yOTItMzMuNTYtMy40OTZjLTIyLjc2MS0wLjM3My00MC4wMjYsNS45NjctNTMuMTI3LDE1LjkwMiAgICBjMCwwLTE2MS40MTEtNjYuNDk1LTE1My45MDQsODMuNjNjMS41OTcsMzEuOTM4LDQ1Ljc3NiwyNDEuNjU3LDk4LjQ3MSwxNzguMzEyYzE5LjI2LTIzLjE2MywzNy44NjktNDIuNzQ4LDM3Ljg2OS00Mi43NDhjOS4yNDMsNi4xNCwyMC4zMDgsOS4yNzIsMzEuOTA4LDguMTQ3bDAuOTAxLTAuNzY1Yy0wLjI4LDIuODc2LTAuMTUyLDUuNjg5LDAuMzYxLDkuMDE5Yy0xMy41NzUsMTUuMTY3LTkuNTg2LDE3LjgzLTM2LjcyMywyMy40MTYgICAgYy0yNy40NTksNS42NTktMTEuMzI4LDE1LjczNC0wLjc5NiwxOC4zNjdjMTIuNzY4LDMuMTkzLDQyLjMwNyw3LjcxNiw2Mi4yNjYtMjAuMjI0bC0wLjc5NiwzLjE4OGM1LjMxOSw0LjI2LDkuMDU0LDI3LjcxMSw4LjQyOCw0OC45NjljLTAuNjI2LDIxLjI1OS0xLjA0NCwzNS44NTQsMy4xNDcsNDcuMjU0YzQuMTkxLDExLjQsOC4zNjgsMzcuMDUsNDQuMDQyLDI5LjQwNmMyOS44MDktNi4zODgsNDUuMjU2LTIyLjk0Miw0Ny40MDUtNTAuNTU1ICAgIGMxLjUyNS0xOS42MzEsNC45NzYtMTYuNzI5LDUuMTk0LTM0LjI4bDIuNzY4LTguMzA5YzMuMTkyLTI2LjYxMSwwLjUwNy0zNS4xOTYsMTguODcyLTMxLjIwM2w0LjQ2MywwLjM5MmMxMy41MTcsMC42MTUsMzEuMjA4LTIuMTc0LDQxLjU5MS03YzIyLjM1OC0xMC4zNzYsMzUuNjE4LTI3LjcsMTMuNTczLTIzLjE0OHoiIHN0eWxlPSJmaWxsOiMzMzY3OTE7c3Ryb2tlOm5vbmU7Ii8+JiN4YTs8cGF0aCBkPSJNMjE1Ljg2NiwyODYuNDg0Yy0xLjM4NSw0OS41MTYsMC4zNDgsOTkuMzc3LDUuMTkzLDExMS40OTVjNC44NDgsMTIuMTE4LDE1LjIyMywzNS42ODgsNTAuOSwyOC4wNDVjMjkuODA2LTYuMzksNDAuNjUxLTE4Ljc1Niw0NS4zNTctNDYuMDUxYzMuNDY2LTIwLjA4MiwxMC4xNDgtNzUuODU0LDExLjAwNS04Ny4yODEiLz4mI3hhOzxwYXRoIGQ9Ik0xNzMuMTA0LDM4LjI1NmMwLDAtMTYxLjUyMS02Ni4wMTYtMTU0LjAxMiw4NC4xMDljMS41OTcsMzEuOTM4LDQ1Ljc3OSwyNDEuNjY0LDk4LjQ3MywxNzguMzE2YzE5LjI1Ni0yMy4xNjYsMzYuNjcxLTQxLjMzNSwzNi42NzEtNDEuMzM1Ii8+JiN4YTs8cGF0aCBkPSJNMjYwLjM0OSwyNi4yMDdjLTUuNTkxLDEuNzUzLDg5Ljg0OC0zNC44ODksMTQ0LjA4NywzNC40MTdjMTkuMTU5LDI0LjQ4NC0zLjA0MywxMjQuNTE5LTU2LjE1MywyMDMuMzI5Ii8+JiN4YTs8cGF0aCBkPSJNMzQ4LjI4MiwyNjMuOTUzYzAsMCwzLjQ2MSwxNy4wMzYsNTMuNzY0LDYuNjUzYzIyLjA0LTQuNTUyLDguNzc2LDEyLjc3NC0xMy41NzcsMjMuMTU1Yy0xOC4zNDUsOC41MTQtNTkuNDc0LDEwLjY5Ni02MC4xNDYtMS4wNjljLTEuNzI5LTMwLjM1NSwyMS42NDctMjEuMTMzLDE5Ljk2LTI4LjczOWMtMS41MjUtNi44NS0xMS45NzktMTMuNTczLTE4Ljg5NC0zMC4zMzggICAgYy02LjAzNy0xNC42MzMtODIuNzk2LTEyNi44NDksMjEuMjg3LTExMC4xODNjMy44MTMtMC43ODktMjcuMTQ2LTk5LjAwMi0xMjQuNTUzLTEwMC41OTljLTk3LjM4NS0xLjU5Ny05NC4xOSwxMTkuNzYyLTk0LjE5LDExOS43NjIiIHN0eWxlPSJzdHJva2UtbGluZWpvaW46YmV2ZWw7Ii8+JiN4YTs8cGF0aCBkPSJNMTg4LjYwNCwyNzQuMzM0Yy0xMy41NzcsMTUuMTY2LTkuNTg0LDE3LjgyOS0zNi43MjMsMjMuNDE3Yy0yNy40NTksNS42Ni0xMS4zMjYsMTUuNzMzLTAuNzk3LDE4LjM2NWMxMi43NjgsMy4xOTUsNDIuMzA3LDcuNzE4LDYyLjI2Ni0yMC4yMjljNi4wNzgtOC41MDktMC4wMzYtMjIuMDg2LTguMzg1LTI1LjU0N2MtNC4wMzQtMS42NzEtOS40MjgtMy43NjUtMTYuMzYxLDMuOTk0eiIvPiYjeGE7PHBhdGggZD0iTTE4Ny43MTUsMjc0LjA2OWMtMS4zNjgtOC45MTcsMi45My0xOS41MjgsNy41MzYtMzEuOTQyYzYuOTIyLTE4LjYyNiwyMi44OTMtMzcuMjU1LDEwLjExNy05Ni4zMzljLTkuNTIzLTQ0LjAyOS03My4zOTYtOS4xNjMtNzMuNDM2LTMuMTkzYy0wLjAzOSw1Ljk2OCwyLjg4OSwzMC4yNi0xLjA2Nyw1OC41NDhjLTUuMTYyLDM2LjkxMywyMy40ODgsNjguMTMyLDU2LjQ3OSw2NC45MzgiLz4mI3hhOzxwYXRoIGQ9Ik0xNzIuNTE3LDE0MS43Yy0wLjI4OCwyLjAzOSwzLjczMyw3LjQ4LDguOTc2LDguMjA3YzUuMjM0LDAuNzMsOS43MTQtMy41MjIsOS45OTgtNS41NTljMC4yODQtMi4wMzktMy43MzItNC4yODUtOC45NzctNS4wMTVjLTUuMjM3LTAuNzMxLTkuNzE5LDAuMzMzLTkuOTk2LDIuMzY3eiIgc3R5bGU9ImZpbGw6I0ZGRkZGRjtzdHJva2Utd2lkdGg6NC4xNTU7c3Ryb2tlLWxpbmVjYXA6YnV0dDtzdHJva2UtbGluZWpvaW46bWl0ZXI7Ii8+JiN4YTs8cGF0aCBkPSJNMzMxLjk0MSwxMzcuNTQzYzAuMjg0LDIuMDM5LTMuNzMyLDcuNDgtOC45NzYsOC4yMDdjLTUuMjM4LDAuNzMtOS43MTgtMy41MjItMTAuMDA1LTUuNTU5Yy0wLjI3Ny0yLjAzOSwzLjc0LTQuMjg1LDguOTc5LTUuMDE1YzUuMjM5LTAuNzMsOS43MTgsMC4zMzMsMTAuMDAyLDIuMzY4eiIgc3R5bGU9ImZpbGw6I0ZGRkZGRjtzdHJva2Utd2lkdGg6Mi4wNzc1O3N0cm9rZS1saW5lY2FwOmJ1dHQ7c3Ryb2tlLWxpbmVqb2luOm1pdGVyOyIvPiYjeGE7PHBhdGggZD0iTTM1MC42NzYsMTIzLjQzMmMwLjg2MywxNS45OTQtMy40NDUsMjYuODg4LTMuOTg4LDQzLjkxNGMtMC44MDQsMjQuNzQ4LDExLjc5OSw1My4wNzQtNy4xOTEsODEuNDM1Ii8+JiN4YTs8cGF0aCBkPSJNMCw2MC4yMzIiIHN0eWxlPSJzdHJva2Utd2lkdGg6MzsiLz4mI3hhOzwvZz4mI3hhOzwvc3ZnPg==;" parent="1" vertex="1">
          <mxGeometry x="470" y="190" width="87.37" height="90" as="geometry" />
        </mxCell>
        <mxCell id="6HhipukeFyFXpgUTVtib-10" value="gwy-spider" style="shape=image;html=1;verticalAlign=top;verticalLabelPosition=bottom;labelBackgroundColor=#ffffff;imageAspect=0;aspect=fixed;image=https://cdn0.iconfinder.com/data/icons/social-media-2104/24/social_media_social_media_logo_docker-128.png" parent="1" vertex="1">
          <mxGeometry x="180" y="20" width="70" height="70" as="geometry" />
        </mxCell>
      </root>
    </mxGraphModel>
  </diagram>
</mxfile>
